<svg width="22" height="35" viewBox="0 0 22 35" fill="none" xmlns="http://www.w3.org/2000/svg">
<mask id="path-1-outside-1_1_6172" maskUnits="userSpaceOnUse" x="0" y="0" width="22" height="35" fill="black">
<rect fill="white" width="22" height="35"/>
<path fill-rule="evenodd" clip-rule="evenodd" d="M21.0956 17.6516L4.44394 1L1 4.44394L14.4715 17.9154L1.25068 31.1362L4.69168 34.5772L21.3433 17.9255L21.0825 17.6647L21.0956 17.6516Z"/>
</mask>
<path fill-rule="evenodd" clip-rule="evenodd" d="M21.0956 17.6516L4.44394 1L1 4.44394L14.4715 17.9154L1.25068 31.1362L4.69168 34.5772L21.3433 17.9255L21.0825 17.6647L21.0956 17.6516Z" fill="url(#paint0_linear_1_6172)"/>
<path d="M4.44394 1L4.62072 0.823223L4.44394 0.646447L4.26717 0.823223L4.44394 1ZM21.0956 17.6516L21.2724 17.8284L21.4491 17.6516L21.2724 17.4749L21.0956 17.6516ZM1 4.44394L0.823223 4.26717L0.646447 4.44394L0.823223 4.62072L1 4.44394ZM14.4715 17.9154L14.6482 18.0922L14.825 17.9154L14.6482 17.7386L14.4715 17.9154ZM1.25068 31.1362L1.0739 30.9594L0.897122 31.1362L1.0739 31.313L1.25068 31.1362ZM4.69168 34.5772L4.5149 34.754L4.69168 34.9307L4.86846 34.754L4.69168 34.5772ZM21.3433 17.9255L21.5201 18.1023L21.6969 17.9255L21.5201 17.7488L21.3433 17.9255ZM21.0825 17.6647L20.9057 17.488L20.729 17.6647L20.9057 17.8415L21.0825 17.6647ZM4.26717 1.17678L20.9188 17.8284L21.2724 17.4749L4.62072 0.823223L4.26717 1.17678ZM1.17678 4.62072L4.62072 1.17678L4.26717 0.823223L0.823223 4.26717L1.17678 4.62072ZM14.6482 17.7386L1.17678 4.26717L0.823223 4.62072L14.2947 18.0922L14.6482 17.7386ZM1.42745 31.313L14.6482 18.0922L14.2947 17.7386L1.0739 30.9594L1.42745 31.313ZM4.86846 34.4004L1.42745 30.9594L1.0739 31.313L4.5149 34.754L4.86846 34.4004ZM21.1665 17.7488L4.5149 34.4004L4.86846 34.754L21.5201 18.1023L21.1665 17.7488ZM20.9057 17.8415L21.1665 18.1023L21.5201 17.7488L21.2593 17.488L20.9057 17.8415ZM20.9188 17.4749L20.9057 17.488L21.2593 17.8415L21.2724 17.8284L20.9188 17.4749Z" fill="url(#paint1_linear_1_6172)" mask="url(#path-1-outside-1_1_6172)"/>
<defs>
<linearGradient id="paint0_linear_1_6172" x1="18.4774" y1="14.4309" x2="-1.31319" y2="15.8651" gradientUnits="userSpaceOnUse">
<stop stop-color="#005BBB"/>
<stop offset="1" stop-color="#6DB4FF"/>
</linearGradient>
<linearGradient id="paint1_linear_1_6172" x1="16" y1="27" x2="-0.999999" y2="15" gradientUnits="userSpaceOnUse">
<stop stop-color="#C4C4C4"/>
<stop offset="1" stop-opacity="0"/>
</linearGradient>
</defs>
</svg>
