<svg width="97" height="100" viewBox="0 0 97 100" fill="none" xmlns="http://www.w3.org/2000/svg">
<path d="M50.1682 63.7857L60.9313 74.9301L50.1382 86.0744L54.4073 90.4514L69.4396 74.9301L54.4073 59.4087L50.1682 63.7857ZM71.2134 63.7857L81.9765 74.9301L71.1833 86.0744L75.4525 90.4514L90.4848 74.9301L75.4525 59.4087L71.2134 63.7857Z" fill="#E4E4E4"/>
<path d="M42.3811 71.8256H12.3166V24.9822L46.6804 49.537C47.1836 49.8974 47.7815 50.0906 48.394 50.0906C49.0065 50.0906 49.6044 49.8974 50.1077 49.537L84.4714 24.9822V53.2H90.4844V22.1573C90.4844 20.5107 89.8508 18.9315 88.7232 17.7672C87.5956 16.6028 86.0662 15.9487 84.4714 15.9487H12.3166C10.7219 15.9487 9.19249 16.6028 8.06485 17.7672C6.93721 18.9315 6.30371 20.5107 6.30371 22.1573V71.8256C6.30371 73.4722 6.93721 75.0514 8.06485 76.2157C9.19249 77.3801 10.7219 78.0342 12.3166 78.0342H42.3811V71.8256ZM77.8573 22.1573L48.394 43.2042L18.9308 22.1573H77.8573Z" fill="#E4E4E4"/>
</svg>
