<svg width="97" height="100" viewBox="0 0 97 100" fill="none" xmlns="http://www.w3.org/2000/svg">
<path d="M50.1668 63.7858L60.9299 74.9302L50.1367 86.0745L54.4059 90.4515L69.4381 74.9302L54.4059 59.4088L50.1668 63.7858ZM71.2119 63.7858L81.975 74.9302L71.1819 86.0745L75.451 90.4515L90.4833 74.9302L75.451 59.4088L71.2119 63.7858Z" fill="#212121"/>
<path d="M42.3801 71.8259H12.3156V24.9824L46.6794 49.5372C47.1826 49.8977 47.7805 50.0909 48.3931 50.0909C49.0056 50.0909 49.6035 49.8977 50.1067 49.5372L84.4705 24.9824V53.2002H90.4834V22.1575C90.4834 20.5109 89.8499 18.9317 88.7222 17.7674C87.5946 16.6031 86.0652 15.949 84.4705 15.949H12.3156C10.7209 15.949 9.19151 16.6031 8.06387 17.7674C6.93623 18.9317 6.30273 20.5109 6.30273 22.1575V71.8259C6.30273 73.4725 6.93623 75.0516 8.06387 76.216C9.19151 77.3803 10.7209 78.0344 12.3156 78.0344H42.3801V71.8259ZM77.8563 22.1575L48.3931 43.2045L18.9298 22.1575H77.8563Z" fill="#212121"/>
</svg>
