<svg width="21" height="20" viewBox="0 0 21 20" fill="none" xmlns="http://www.w3.org/2000/svg">
<path d="M16.6651 17.4999C16.8041 17.4999 16.9501 17.4966 17.103 17.4899C17.256 17.4827 17.402 17.4722 17.541 17.4583V12.5833L13.3698 11.7499L10.9505 14.1666C9.89378 13.5277 8.92383 12.7708 8.04065 11.8958C7.15802 11.0208 6.42471 10.0833 5.84074 9.08327L8.21834 6.68744L7.44666 2.49994H2.56633C2.53853 2.63883 2.52462 2.78466 2.52462 2.93744V3.37494C2.52462 5.16661 2.9245 6.91299 3.72427 8.61411C4.52347 10.3158 5.58018 11.8263 6.89439 13.1458C8.20805 14.4652 9.71636 15.5208 11.4193 16.3124C13.1229 17.1041 14.8714 17.4999 16.6651 17.4999Z" fill="url(#paint0_linear_1_3778)"/>
<defs>
<linearGradient id="paint0_linear_1_3778" x1="10.0328" y1="2.49994" x2="10.0328" y2="17.4999" gradientUnits="userSpaceOnUse">
<stop stop-color="#005BBB"/>
<stop offset="1" stop-color="#6DB4FF"/>
</linearGradient>
</defs>
</svg>
