<svg width="10" height="12" viewBox="0 0 10 12" fill="none" xmlns="http://www.w3.org/2000/svg">
<path d="M8.92857 11.25H1.07143C0.479911 11.25 0 10.7461 0 10.125V1.875C0 1.25391 0.479911 0.75 1.07143 0.75H8.92857C9.52009 0.75 10 1.25391 10 1.875V10.125C10 10.7461 9.52009 11.25 8.92857 11.25ZM5.31473 4.16953L2.28571 7.35L2.14509 8.68828C2.12723 8.86641 2.27009 9.01875 2.44196 9L3.71652 8.85234L6.74554 5.67188C6.79688 5.61797 6.79688 5.52891 6.74554 5.47266L5.5067 4.17188C5.45089 4.11562 5.36607 4.11562 5.31473 4.16953ZM7.70089 3.86953L7.02902 3.16406C6.8192 2.94375 6.47991 2.94375 6.27232 3.16406L5.7567 3.70547C5.70536 3.75938 5.70536 3.84844 5.7567 3.90469L6.99554 5.20547C7.04688 5.25938 7.1317 5.25938 7.18527 5.20547L7.70089 4.66406C7.90848 4.44609 7.90848 4.08984 7.70089 3.86953Z" fill="#E4E4E4"/>
</svg>
