<svg width="21" height="20" viewBox="0 0 21 20" fill="none" xmlns="http://www.w3.org/2000/svg">
<path d="M4.1929 17.4999C3.73407 17.4999 3.34114 17.3369 3.01412 17.0108C2.68765 16.6841 2.52441 16.2916 2.52441 15.8333C2.52441 15.3749 2.68765 14.9824 3.01412 14.6558C3.34114 14.3297 3.73407 14.1666 4.1929 14.1666C4.65174 14.1666 5.04439 14.3297 5.37086 14.6558C5.69788 14.9824 5.86139 15.3749 5.86139 15.8333C5.86139 16.2916 5.69788 16.6841 5.37086 17.0108C5.04439 17.3369 4.65174 17.4999 4.1929 17.4999ZM14.2038 17.4999C14.2038 15.8888 13.8979 14.3783 13.2862 12.9683C12.6744 11.5588 11.8368 10.3227 10.7734 9.25995C9.70948 8.19773 8.47202 7.36106 7.06103 6.74995C5.64949 6.13884 4.13729 5.83328 2.52441 5.83328V3.33328C4.48489 3.33328 6.32718 3.70495 8.05128 4.44828C9.77539 5.19106 11.277 6.20134 12.5562 7.47912C13.8354 8.75689 14.847 10.2569 15.5912 11.9791C16.3348 13.7013 16.7066 15.5416 16.7066 17.4999H14.2038ZM9.19837 17.4999C9.19837 15.6527 8.54821 14.08 7.2479 12.7816C5.94815 11.4827 4.37366 10.8333 2.52441 10.8333V8.33328C3.80359 8.33328 4.99934 8.573 6.11166 9.05245C7.22399 9.53134 8.19394 10.1838 9.02151 11.0099C9.84852 11.8366 10.5017 12.8055 10.9811 13.9166C11.4611 15.0277 11.7011 16.2222 11.7011 17.4999H9.19837Z" fill="url(#paint0_linear_1_3780)"/>
<defs>
<linearGradient id="paint0_linear_1_3780" x1="9.61549" y1="3.33328" x2="9.61549" y2="17.4999" gradientUnits="userSpaceOnUse">
<stop stop-color="#005BBB"/>
<stop offset="1" stop-color="#6DB4FF"/>
</linearGradient>
</defs>
</svg>
