<svg width="95" height="95" viewBox="0 0 95 95" fill="none" xmlns="http://www.w3.org/2000/svg">
<g clip-path="url(#clip0_306_2424)">
<path d="M47.5 95C73.7335 95 95 73.7335 95 47.5C95 21.2665 73.7335 0 47.5 0C21.2665 0 0 21.2665 0 47.5C0 73.7335 21.2665 95 47.5 95Z" fill="#00B22D"/>
<path d="M86.5441 38.641C86.5441 37.0735 85.3091 35.791 83.7416 35.791C82.2216 35.791 80.9629 37.0498 80.9629 38.641C80.9629 40.2085 82.1979 41.491 83.7416 41.491C85.3091 41.5148 86.5441 40.2323 86.5441 38.641ZM83.7416 40.7073C82.6729 40.7073 81.8416 39.8048 81.8416 38.641C81.8416 37.501 82.6729 36.5985 83.7416 36.5985C84.8341 36.5985 85.6891 37.501 85.6891 38.641C85.6891 39.8048 84.8341 40.7073 83.7416 40.7073Z" fill="white"/>
<path d="M84.5016 38.8784C84.6441 38.8309 84.9529 38.6171 84.9529 38.1659C84.9529 37.6196 84.5966 37.2871 84.0029 37.2871H82.7441V39.9709H83.5754V39.0684H83.7891L84.1691 39.9709H85.0716L84.5729 39.0446C84.5254 38.9021 84.5016 38.8784 84.5016 38.8784ZM83.7891 38.4984H83.5754V37.8571H83.7891C83.9791 37.8571 84.0741 37.9521 84.0741 38.1659C84.0979 38.3796 83.9791 38.4984 83.7891 38.4984Z" fill="white"/>
<path d="M24.8416 40.8497C26.0221 40.8497 26.9791 39.8927 26.9791 38.7122C26.9791 37.5317 26.0221 36.5747 24.8416 36.5747C23.6611 36.5747 22.7041 37.5317 22.7041 38.7122C22.7041 39.8927 23.6611 40.8497 24.8416 40.8497Z" fill="white"/>
<path d="M27.0746 42.2509H17.2896V41.6097C17.2896 40.3509 18.5483 40.3272 19.1896 40.3272C19.9258 40.3272 20.2583 40.3984 20.2583 40.3984V36.9309C20.2583 36.9309 19.5933 36.8359 18.6908 36.8359C16.6483 36.8359 12.8721 37.4059 12.8721 41.7284V42.2747H11.0908V45.4809H12.8721V52.2497H11.2096V55.4559H19.2371V52.2497H17.2896V45.4809H22.6333V52.2497H20.9708V55.4559H28.7371V52.2497H27.0746V42.2509ZM43.6996 42.2509H36.6933V45.4572H37.8808L36.3608 50.2072C36.0758 50.9909 36.0046 51.9409 36.0046 51.9409H35.9096C35.9096 51.9409 35.8383 50.9909 35.5533 50.2072L34.0333 45.4572H35.2208V42.2509H28.2146V45.4572H29.6871L33.3446 55.4322H38.5696L42.2271 45.4572H43.6996V42.2509ZM56.6671 48.3072C56.6671 44.6497 54.4583 41.9422 50.5396 41.9422C46.2883 41.9422 43.6758 44.9584 43.6758 48.8297C43.6758 52.3447 46.2171 55.7409 50.9196 55.7409C54.4821 55.7409 56.5958 53.8884 56.5958 53.8884L54.9808 50.8247C54.9808 50.8247 53.2233 52.0834 51.2758 52.0834C49.8746 52.0834 48.5446 51.3472 48.2121 49.6609H56.5721C56.5483 49.6372 56.6671 48.7347 56.6671 48.3072ZM48.3071 47.2147C48.5446 46.1934 49.1621 45.2672 50.4208 45.2672C51.3946 45.2672 52.0833 46.1697 52.0833 47.2147H48.3071ZM75.4058 45.2909H75.3583C75.3583 45.2909 75.4058 45.0297 75.4058 44.6259V43.9372C75.4058 42.7259 74.7408 42.2509 73.5296 42.2509H69.3733V45.4572H70.6083C70.9646 45.4572 71.1783 45.6709 71.1783 46.0272V52.2497H69.3971V55.4559H77.4008V52.2497H75.6196V50.3259C75.6196 47.9272 76.8071 46.3597 79.2533 46.3597C79.7996 46.3597 80.1558 46.4309 80.1558 46.4309V42.0847C80.1558 42.0847 79.8946 42.0372 79.6333 42.0372C77.6383 42.0134 75.9758 43.4859 75.4058 45.2909ZM63.6971 45.2909H63.6496C63.6496 45.2909 63.6971 45.0297 63.6971 44.6259V43.9372C63.6971 42.7259 63.0321 42.2509 61.8208 42.2509H57.6646V45.4572H58.8996C59.2558 45.4572 59.4696 45.6709 59.4696 46.0272V52.2497H57.6883V55.4559H65.6921V52.2497H63.9108V50.3259C63.9108 47.9272 65.0983 46.3597 67.5446 46.3597C68.0908 46.3597 68.4471 46.4309 68.4471 46.4309V42.0847C68.4471 42.0847 68.1858 42.0372 67.9246 42.0372C65.9058 42.0134 64.2433 43.4859 63.6971 45.2909Z" fill="white"/>
</g>
<defs>
<clipPath id="clip0_306_2424">
<rect width="95" height="95" fill="white"/>
</clipPath>
</defs>
</svg>
