<svg width="15" height="17" viewBox="0 0 15 17" fill="none" xmlns="http://www.w3.org/2000/svg">
<path d="M2.92104 12.5205C2.96021 12.5815 2.98716 12.6498 3.00034 12.7214C3.01352 12.7929 3.01268 12.8664 2.99787 12.9377C2.98305 13.0089 2.95456 13.0765 2.914 13.1366C2.87345 13.1966 2.82164 13.248 2.76152 13.2877C2.7014 13.3275 2.63415 13.3548 2.56362 13.3682C2.49309 13.3816 2.42065 13.3807 2.35044 13.3657C2.28024 13.3507 2.21363 13.3218 2.15444 13.2806C2.09525 13.2395 2.04462 13.1869 2.00545 13.1259C1.27785 11.9898 0.889355 10.6646 0.886732 9.30978C0.88411 7.95492 1.26747 6.62817 1.99067 5.48925C2.0296 5.42808 2.08002 5.37529 2.13906 5.33389C2.1981 5.2925 2.26459 5.2633 2.33475 5.24798C2.4049 5.23266 2.47735 5.23152 2.54794 5.2446C2.61853 5.25769 2.68589 5.28476 2.74618 5.32427C2.80646 5.36377 2.85849 5.41494 2.89928 5.47484C2.94008 5.53475 2.96885 5.60223 2.98394 5.67341C2.99904 5.7446 3.00018 5.81811 2.98728 5.88974C2.97438 5.96138 2.9477 6.02973 2.90877 6.0909C2.67221 6.46387 2.47754 6.86255 2.3284 7.27948C2.02048 8.13994 1.91374 9.06121 2.01658 9.97068C2.11943 10.8801 2.42905 11.7529 2.92104 12.5203V12.5205ZM4.72183 4.28709C5.67998 3.69026 6.78779 3.38735 7.91175 3.41487C9.0357 3.44238 10.1278 3.79915 11.0565 4.44217C11.1761 4.52515 11.3234 4.55649 11.4658 4.52932C11.6082 4.50215 11.7342 4.41868 11.8159 4.29728C11.8977 4.17588 11.9286 4.02649 11.9018 3.88197C11.875 3.73746 11.7928 3.60966 11.6731 3.52668C10.57 2.76331 9.273 2.33976 7.93819 2.30703C6.60338 2.27429 5.2877 2.63377 4.14955 3.34217C4.02933 3.42072 3.94422 3.54394 3.91248 3.68541C3.88074 3.82688 3.90489 3.97534 3.97976 4.09895C4.05462 4.22256 4.17424 4.31149 4.31296 4.34666C4.45168 4.38183 4.59846 4.36045 4.72183 4.28709ZM14.6444 9.30431C14.6231 7.9792 14.2343 6.68699 13.5224 5.57585C13.4433 5.45265 13.3192 5.36638 13.1774 5.33602C13.0357 5.30566 12.8878 5.3337 12.7664 5.41398C12.645 5.49425 12.5599 5.62017 12.53 5.76405C12.5001 5.90793 12.5277 6.05797 12.6069 6.18117C13.206 7.11683 13.5335 8.20476 13.5517 9.32044C13.5618 10.0369 13.4425 10.7491 13.1998 11.422C13.0506 11.8389 12.8558 12.2376 12.6191 12.6105C12.5802 12.6717 12.5535 12.7401 12.5406 12.8117C12.5277 12.8833 12.5288 12.9568 12.5439 13.028C12.559 13.0992 12.5878 13.1667 12.6286 13.2266C12.6694 13.2865 12.7214 13.3377 12.7817 13.3772C12.842 13.4167 12.9094 13.4437 12.98 13.4568C13.0505 13.4699 13.123 13.4688 13.1931 13.4535C13.2633 13.4381 13.3298 13.4089 13.3888 13.3675C13.4479 13.3261 13.4983 13.2734 13.5372 13.2122C14.2756 12.0478 14.6606 10.6889 14.6444 9.30431ZM10.8061 14.4146C10.4331 14.6463 10.0359 14.835 9.62162 14.9772C8.76696 15.2701 7.85696 15.3577 6.96326 15.2331C6.06956 15.1086 5.21655 14.7752 4.47138 14.2593C4.41214 14.2182 4.34551 14.1893 4.27529 14.1744C4.20506 14.1594 4.13262 14.1587 4.0621 14.1721C3.99159 14.1856 3.92437 14.213 3.86429 14.2528C3.80422 14.2926 3.75246 14.344 3.71197 14.4042C3.67148 14.4643 3.64306 14.5319 3.62832 14.6031C3.61359 14.6744 3.61283 14.7479 3.62609 14.8195C3.63934 14.891 3.66636 14.9592 3.7056 15.0202C3.74484 15.0811 3.79552 15.1337 3.85476 15.1748C4.93367 15.9216 6.19813 16.3448 7.50318 16.3959C7.58741 16.3991 7.67154 16.4006 7.75558 16.4004C9.03443 16.3972 10.2878 16.037 11.3783 15.3593C11.4395 15.3211 11.4926 15.2712 11.5347 15.2122C11.5768 15.1532 11.607 15.0864 11.6237 15.0156C11.6403 14.9448 11.6431 14.8713 11.6317 14.7994C11.6204 14.7275 11.5952 14.6586 11.5577 14.5966C11.5201 14.5346 11.4708 14.4807 11.4127 14.4379C11.3546 14.3952 11.2888 14.3646 11.219 14.3477C11.1492 14.3308 11.0768 14.328 11.006 14.3395C10.9351 14.351 10.8672 14.3765 10.8061 14.4146ZM9.83804 9.37874C8.98464 8.93557 8.20515 8.90896 7.51713 8.88548C6.8478 8.86255 6.3193 8.84444 5.79471 8.4839C5.29522 8.1412 4.92291 7.5537 4.68752 6.73811C4.66738 6.66822 4.63387 6.60305 4.5889 6.5463C4.54394 6.48956 4.4884 6.44236 4.42545 6.40739C4.36251 6.37243 4.2934 6.35039 4.22206 6.34253C4.15072 6.33467 4.07856 6.34114 4.00968 6.36158C3.94081 6.38202 3.87658 6.41603 3.82066 6.46166C3.76474 6.50729 3.71822 6.56364 3.68377 6.62751C3.64931 6.69138 3.62759 6.76151 3.61984 6.8339C3.6121 6.90629 3.61848 6.97952 3.63862 7.0494C3.94735 8.11912 4.46664 8.91066 5.18199 9.40222C5.96762 9.94161 6.7368 9.96821 7.48032 9.9934C8.10949 10.0149 8.70408 10.0353 9.34023 10.3658C9.95936 10.6873 10.4795 11.2324 10.8855 11.9854C10.9551 12.1144 11.0723 12.21 11.2114 12.2513C11.3505 12.2926 11.5 12.2762 11.6271 12.2056C11.7542 12.135 11.8485 12.016 11.8892 11.8749C11.9299 11.7338 11.9137 11.5821 11.8441 11.4531C11.3309 10.5017 10.6563 9.80351 9.83804 9.37874ZM7.27226 4.50754L7.24577 7.38928C7.24443 7.53634 7.30071 7.67792 7.40222 7.78289C7.50373 7.88786 7.64217 7.94763 7.78709 7.94904H7.79239C7.93609 7.94861 8.07383 7.89074 8.17578 7.78798C8.27772 7.68522 8.33567 7.54584 8.33706 7.40003L8.36495 4.51801C8.36331 4.3729 8.30569 4.23421 8.20445 4.13171C8.1032 4.02921 7.9664 3.97105 7.82339 3.96972C7.68037 3.96839 7.54254 4.02398 7.43946 4.12458C7.33637 4.22518 7.27625 4.36276 7.27199 4.50783L7.27226 4.50754ZM7.77901 14.6688C7.92302 14.6687 8.06118 14.611 8.16348 14.5081C8.26579 14.4053 8.32395 14.2656 8.32535 14.1195L8.35184 11.2374C8.35251 11.1646 8.33903 11.0924 8.31218 11.0249C8.28534 10.9574 8.24565 10.8959 8.19538 10.8439C8.14511 10.792 8.08525 10.7506 8.01922 10.7221C7.95318 10.6936 7.88227 10.6786 7.81052 10.678H7.80522C7.66124 10.678 7.5231 10.7358 7.42084 10.8386C7.31859 10.9415 7.26048 11.0812 7.25916 11.2273L7.23266 14.109C7.23196 14.1818 7.2454 14.254 7.27222 14.3216C7.29903 14.3891 7.33869 14.4506 7.38893 14.5026C7.43917 14.5546 7.49901 14.596 7.56503 14.6245C7.63105 14.653 7.70196 14.6681 7.77371 14.6688H7.77901ZM7.84036 1.11896C7.94942 1.11902 8.05605 1.08625 8.14676 1.02481C8.23747 0.963368 8.30818 0.876008 8.34995 0.773781C8.39173 0.671555 8.40269 0.559053 8.38144 0.450505C8.3602 0.341958 8.30771 0.242242 8.23061 0.163969C8.15351 0.0856954 8.05527 0.0323819 7.94831 0.0107712C7.84135 -0.0108394 7.73047 0.000223644 7.62971 0.0425611C7.52894 0.0848986 7.44281 0.156608 7.38222 0.248621C7.32162 0.340633 7.28928 0.448814 7.28928 0.559481C7.28928 0.707669 7.34721 0.849804 7.45037 0.954694C7.55353 1.05958 7.69349 1.11866 7.83952 1.11896H7.84036Z" fill="#3A3A3A"/>
</svg>
