<svg width="18" height="18" viewBox="0 0 18 18" fill="none" xmlns="http://www.w3.org/2000/svg">
<path d="M17.5277 8.86339L9.47402 0.824325C9.41604 0.766286 9.34716 0.72024 9.27133 0.688823C9.19551 0.657407 9.11423 0.641235 9.03214 0.641235C8.95005 0.641235 8.86877 0.657407 8.79294 0.688823C8.71712 0.72024 8.64824 0.766286 8.59025 0.824325L0.536534 8.86339C0.301903 9.09776 0.168945 9.41612 0.168945 9.74815C0.168945 10.4376 0.730105 10.9982 1.42031 10.9982H2.26889V16.7345C2.26889 17.0802 2.5485 17.3595 2.89458 17.3595H7.78077V12.9845H9.97066V17.3595H15.1697C15.5158 17.3595 15.7954 17.0802 15.7954 16.7345V10.9982H16.644C16.9764 10.9982 17.2951 10.8673 17.5297 10.631C18.0166 10.1427 18.0166 9.35167 17.5277 8.86339Z" fill="url(#paint0_linear_1_3769)"/>
<defs>
<linearGradient id="paint0_linear_1_3769" x1="9.03177" y1="0.641235" x2="9.03177" y2="17.3595" gradientUnits="userSpaceOnUse">
<stop stop-color="#005BBB"/>
<stop offset="1" stop-color="#6DB4FF"/>
</linearGradient>
</defs>
</svg>
