<svg width="95" height="95" viewBox="0 0 95 95" fill="none" xmlns="http://www.w3.org/2000/svg">
<path d="M47.5 0C38.1054 0 28.9218 2.78583 21.1104 8.00519C13.2991 13.2246 7.2109 20.643 3.61574 29.3225C0.0205811 38.002 -0.920077 47.5527 0.91272 56.7668C2.74552 65.9809 7.26945 74.4446 13.9124 81.0876C20.5554 87.7305 29.0191 92.2545 38.2332 94.0873C47.4473 95.9201 56.998 94.9794 65.6775 91.3843C74.357 87.7891 81.7754 81.7009 86.9948 73.8896C92.2142 66.0782 95 56.8946 95 47.5C94.9984 34.9027 89.9935 22.8218 81.0859 13.9141C72.1782 5.0065 60.0973 0.00155053 47.5 0ZM47.5 83.4861C40.3826 83.4861 33.4251 81.3755 27.5072 77.4213C21.5893 73.4671 16.9769 67.8469 14.2532 61.2713C11.5295 54.6957 10.8169 47.4601 12.2054 40.4795C13.5939 33.4988 17.0213 27.0867 22.054 22.054C27.0868 17.0212 33.4989 13.5939 40.4795 12.2054C47.4601 10.8168 54.6957 11.5295 61.2713 14.2532C67.8469 16.9769 73.4671 21.5893 77.4213 27.5072C81.3755 33.4251 83.4861 40.3826 83.4861 47.5C83.4768 57.0412 79.6824 66.189 72.9358 72.9357C66.1891 79.6824 57.0413 83.4768 47.5 83.4861Z" fill="#F0F1F2"/>
<path d="M41.6755 54.4002C43.2557 55.82 45.3038 56.6052 47.4268 56.6052C49.5497 56.6052 51.5978 55.82 53.178 54.4002V40.5998C51.5996 39.1764 49.5508 38.3887 47.4268 38.3887C45.3027 38.3887 43.2539 39.1764 41.6755 40.5998V54.4002ZM47.4268 23.0337C44.2205 23.0335 41.0457 23.6666 38.0841 24.8968C35.1224 26.127 32.4321 27.93 30.1672 30.2028L38.2832 38.3427C40.7075 35.9148 43.9954 34.5509 47.4238 34.5509C50.8522 34.5509 54.1402 35.9148 56.5645 38.3427L64.6922 30.2028C62.4262 27.9281 59.7341 26.1239 56.7703 24.8936C53.8064 23.6634 50.6292 23.0313 47.4209 23.0337H47.4268ZM56.5762 56.6807C55.3762 57.8836 53.9513 58.8378 52.3829 59.4888C50.8144 60.1398 49.1333 60.4749 47.4355 60.4749C45.7377 60.4749 44.0566 60.1398 42.4882 59.4888C40.9198 58.8378 39.4948 57.8836 38.2948 56.6807L30.1789 64.7972C32.4455 67.0692 35.137 68.8716 38.0994 70.1013C41.062 71.331 44.2374 71.9639 47.4443 71.9639C50.6511 71.9639 53.8266 71.331 56.7891 70.1013C59.7516 68.8716 62.4431 67.0692 64.7097 64.7972L56.5762 56.6807ZM47.4092 95C47.6131 92.272 46.8963 89.5544 45.3738 87.2831C43.8513 85.0119 41.6113 83.3184 39.013 82.4745H38.9663C32.1256 80.7764 25.9334 77.1036 21.1586 71.912C16.3838 66.7205 13.2366 60.2388 12.1077 53.2716H35.9301C35.0021 51.4939 34.5174 49.5177 34.5174 47.5117C34.5174 45.5057 35.0021 43.5295 35.9301 41.7518H12.0843C13.0119 35.9422 15.3515 30.4501 18.8971 25.7591C22.4427 21.068 27.0856 17.322 32.4168 14.8508C37.7481 12.3796 43.6043 11.259 49.4697 11.5877C55.3351 11.9164 61.0299 13.6843 66.0526 16.7358C68.4543 18.1794 71.3006 18.6927 74.0543 18.1788C76.8079 17.665 79.2786 16.1595 81 13.9465C75.4895 8.41655 68.7021 4.33321 61.2393 2.0583C53.7764 -0.216602 45.8684 -0.612834 38.2161 0.904716C30.5637 2.42227 23.4033 5.80674 17.3692 10.7583C11.3351 15.7098 6.61369 22.0755 3.62327 29.2912C0.632848 36.507 -0.534232 44.3502 0.225438 52.1257C0.985108 59.9012 3.64807 67.369 7.97838 73.8674C12.3087 80.3658 18.1726 85.6941 25.0506 89.3803C31.9286 93.0665 39.6083 94.9968 47.4092 95Z" fill="#FFBB17"/>
</svg>
