<svg width="11" height="11" viewBox="0 0 11 11" fill="none" xmlns="http://www.w3.org/2000/svg">
<path d="M8.62598 10.5H1.75098C1.41946 10.5 1.10151 10.3683 0.867093 10.1339C0.632673 9.89946 0.500977 9.58152 0.500977 9.25V2.375C0.500977 2.04348 0.632673 1.72554 0.867093 1.49112C1.10151 1.2567 1.41946 1.125 1.75098 1.125H4.25098V2.375H1.75098V9.25H8.62598V6.75H9.87598V9.25C9.87598 9.58152 9.74428 9.89946 9.50986 10.1339C9.27544 10.3683 8.9575 10.5 8.62598 10.5ZM5.31348 6.56687L4.43223 5.68312L8.36535 1.75H6.12598V0.5H10.501V4.875H9.25098V2.63437L5.31348 6.56687Z" fill="#6DB4FF"/>
</svg>
