<svg width="198" height="36" viewBox="0 0 198 36" fill="none" xmlns="http://www.w3.org/2000/svg">
<path d="M27.8643 -3.05176e-05H8.3762C3.80571 -3.05176e-05 0.100586 3.70104 0.100586 8.26655V27.7334C0.100586 32.2989 3.80571 36 8.3762 36H27.8643C32.4348 36 36.1399 32.2989 36.1399 27.7334V8.26655C36.1399 3.70104 32.4348 -3.05176e-05 27.8643 -3.05176e-05Z" fill="#5081FF"/>
<path d="M10.3649 23.8491C10.4276 23.9458 10.4708 24.054 10.4919 24.1675C10.513 24.2809 10.5116 24.3974 10.4879 24.5104C10.4642 24.6233 10.4186 24.7305 10.3537 24.8257C10.2887 24.9209 10.2058 25.0024 10.1096 25.0654C10.0133 25.1284 9.90568 25.1717 9.79278 25.1929C9.67987 25.2141 9.56391 25.2128 9.45152 25.189C9.33914 25.1651 9.23252 25.1193 9.13776 25.054C9.043 24.9888 8.96196 24.9055 8.89926 24.8087C7.73452 23.0078 7.11262 20.9069 7.10842 18.759C7.10422 16.6111 7.71791 14.5078 8.8756 12.7022C8.93792 12.6052 9.01864 12.5216 9.11314 12.4559C9.20765 12.3903 9.31409 12.344 9.4264 12.3197C9.5387 12.2954 9.65467 12.2936 9.76767 12.3144C9.88068 12.3351 9.98851 12.378 10.085 12.4407C10.1815 12.5033 10.2648 12.5844 10.3301 12.6794C10.3954 12.7743 10.4415 12.8813 10.4656 12.9942C10.4898 13.107 10.4916 13.2236 10.471 13.3371C10.4503 13.4507 10.4076 13.5591 10.3453 13.656C9.96661 14.2473 9.65498 14.8793 9.41624 15.5403C8.92332 16.9044 8.75245 18.3649 8.91708 19.8067C9.08171 21.2485 9.57736 22.6327 10.3649 23.8491ZM13.2476 10.7964C14.7814 9.85023 16.5548 9.37002 18.354 9.41364C20.1533 9.45726 21.9015 10.0229 23.3882 11.0423C23.5797 11.1738 23.8153 11.2235 24.0433 11.1804C24.2713 11.1373 24.4729 11.005 24.6038 10.8126C24.7347 10.6201 24.7842 10.3833 24.7413 10.1542C24.6984 9.92505 24.5668 9.72245 24.3752 9.59091C22.6094 8.38072 20.5331 7.70925 18.3964 7.65736C16.2596 7.60546 14.1535 8.17534 12.3315 9.2984C12.1391 9.42292 12.0028 9.61826 11.952 9.84254C11.9012 10.0668 11.9399 10.3022 12.0597 10.4981C12.1796 10.6941 12.371 10.8351 12.5931 10.8908C12.8152 10.9466 13.0501 10.9127 13.2476 10.7964ZM29.1317 18.7503C29.0976 16.6496 28.4751 14.601 27.3356 12.8395C27.209 12.6442 27.0103 12.5074 26.7833 12.4593C26.5564 12.4112 26.3197 12.4556 26.1253 12.5829C25.9309 12.7101 25.7948 12.9098 25.747 13.1379C25.6991 13.366 25.7433 13.6038 25.8699 13.7991C26.8291 15.2825 27.3532 17.0072 27.3825 18.7759C27.3985 19.9117 27.2076 21.0408 26.8191 22.1075C26.5803 22.7685 26.2685 23.4006 25.8896 23.9918C25.8273 24.0887 25.7846 24.1971 25.7639 24.3107C25.7433 24.4242 25.7451 24.5408 25.7692 24.6536C25.7934 24.7665 25.8395 24.8735 25.9048 24.9684C25.9701 25.0634 26.0534 25.1445 26.1499 25.2071C26.2464 25.2698 26.3542 25.3127 26.4672 25.3334C26.5802 25.3542 26.6962 25.3524 26.8085 25.3281C26.9208 25.3038 27.0272 25.2575 27.1217 25.1919C27.2162 25.1262 27.2969 25.0426 27.3593 24.9456C28.5413 23.0996 29.1576 20.9453 29.1317 18.7503ZM22.9872 26.8518C22.3903 27.2192 21.7543 27.5183 21.0912 27.7437C19.7231 28.2081 18.2663 28.347 16.8357 28.1495C15.4051 27.9519 14.0396 27.4234 12.8467 26.6055C12.7519 26.5404 12.6452 26.4947 12.5328 26.471C12.4204 26.4473 12.3044 26.4461 12.1915 26.4674C12.0787 26.4887 11.9711 26.5322 11.8749 26.5953C11.7787 26.6584 11.6959 26.74 11.631 26.8352C11.5662 26.9305 11.5207 27.0377 11.4971 27.1507C11.4736 27.2637 11.4723 27.3802 11.4936 27.4936C11.5148 27.6071 11.558 27.7152 11.6209 27.8119C11.6837 27.9085 11.7648 27.9918 11.8596 28.0569C13.5867 29.2408 15.6109 29.9118 17.7 29.9928C17.8348 29.9979 17.9695 30.0002 18.104 29.9999C20.1512 29.9948 22.1575 29.4238 23.9033 28.3494C24.0012 28.289 24.0862 28.2097 24.1536 28.1163C24.221 28.0228 24.2694 27.9169 24.2961 27.8046C24.3227 27.6923 24.3271 27.5759 24.309 27.4619C24.2909 27.3479 24.2506 27.2387 24.1904 27.1403C24.1303 27.042 24.0514 26.9565 23.9584 26.8888C23.8654 26.8211 23.76 26.7725 23.6483 26.7457C23.5366 26.7189 23.4207 26.7145 23.3073 26.7327C23.1938 26.7509 23.0851 26.7914 22.9872 26.8518ZM21.4376 18.8683C20.0715 18.1657 18.8237 18.1236 17.7223 18.0863C16.6509 18.05 15.8049 18.0213 14.9651 17.4497C14.1655 16.9064 13.5695 15.975 13.1927 14.6821C13.1605 14.5713 13.1068 14.4679 13.0348 14.378C12.9629 14.288 12.8739 14.2132 12.7732 14.1578C12.6724 14.1023 12.5618 14.0674 12.4476 14.0549C12.3334 14.0425 12.2179 14.0527 12.1076 14.0852C11.9974 14.1176 11.8946 14.1715 11.805 14.2438C11.7155 14.3161 11.6411 14.4055 11.5859 14.5067C11.5307 14.608 11.496 14.7192 11.4836 14.8339C11.4712 14.9487 11.4814 15.0648 11.5136 15.1756C12.0078 16.8714 12.8391 18.1263 13.9843 18.9056C15.2419 19.7607 16.4732 19.8028 17.6634 19.8428C18.6706 19.8769 19.6224 19.9092 20.6407 20.4332C21.6318 20.9428 22.4645 21.8069 23.1145 23.0007C23.2258 23.2052 23.4135 23.3569 23.6361 23.4223C23.8587 23.4878 24.0981 23.4617 24.3016 23.3498C24.5051 23.2379 24.656 23.0493 24.7211 22.8256C24.7862 22.6019 24.7603 22.3613 24.6489 22.1568C23.8275 20.6485 22.7475 19.5417 21.4376 18.8683ZM17.3304 11.1459L17.2879 15.7144C17.2858 15.9475 17.3759 16.172 17.5384 16.3384C17.7009 16.5048 17.9225 16.5995 18.1545 16.6018H18.163C18.393 16.6011 18.6135 16.5094 18.7767 16.3464C18.9399 16.1835 19.0326 15.9626 19.0349 15.7314L19.0795 11.1625C19.0769 10.9324 18.9847 10.7126 18.8226 10.5501C18.6605 10.3876 18.4415 10.2954 18.2126 10.2933C17.9836 10.2912 17.763 10.3793 17.598 10.5388C17.433 10.6983 17.3372 10.9159 17.3304 11.1459ZM18.1415 27.2547C18.3721 27.2546 18.5933 27.1631 18.757 27C18.9208 26.837 19.0139 26.6156 19.0161 26.3839L19.0585 21.815C19.0596 21.6996 19.038 21.5851 18.995 21.478C18.9521 21.371 18.8885 21.2735 18.8081 21.1911C18.7276 21.1088 18.6318 21.0431 18.5261 20.998C18.4204 20.9529 18.3068 20.9291 18.192 20.928H18.1835C17.953 20.9281 17.7319 21.0197 17.5682 21.1827C17.4045 21.3458 17.3115 21.5672 17.3094 21.7988L17.267 26.3673C17.2658 26.4827 17.2874 26.5972 17.3303 26.7043C17.3732 26.8114 17.4367 26.9089 17.5171 26.9913C17.5975 27.0737 17.6933 27.1394 17.799 27.1846C17.9047 27.2298 18.0182 27.2536 18.1331 27.2547H18.1415ZM18.2398 5.77389C18.4143 5.77398 18.585 5.72203 18.7302 5.62463C18.8754 5.52722 18.9886 5.38873 19.0555 5.22666C19.1224 5.0646 19.1399 4.88625 19.1059 4.71417C19.0719 4.54208 18.9879 4.384 18.8645 4.25991C18.7411 4.13582 18.5838 4.05131 18.4126 4.01705C18.2413 3.98279 18.0638 4.00032 17.9025 4.06744C17.7412 4.13456 17.6034 4.24824 17.5064 4.39411C17.4094 4.53998 17.3576 4.71149 17.3576 4.88693C17.3576 5.12185 17.4503 5.34718 17.6155 5.51347C17.7806 5.67976 18.0046 5.77341 18.2384 5.77389H18.2398Z" fill="#E4E4E4"/>
<path d="M56.9051 31.4922L55.4541 27.1262H55.9216L57.2797 31.2343H57.046L58.4494 27.1262H58.8672L60.2507 31.2343H60.0289L61.4 27.1262H61.8361L60.3857 31.4922H59.9063L58.5844 27.594H58.7075L57.3795 31.4922H56.9051Z" fill="#212121"/>
<path d="M63.6982 31.5235C63.3898 31.5304 63.0848 31.4562 62.813 31.3082C62.565 31.17 62.3595 30.9649 62.2192 30.7156C62.0724 30.4524 61.9979 30.1541 62.0033 29.8518C61.9973 29.5517 62.0684 29.2551 62.2095 28.9913C62.3419 28.7464 62.5372 28.5426 62.7746 28.4014C63.0202 28.2563 63.3002 28.1821 63.5843 28.1867C63.8678 28.1812 64.1475 28.2533 64.394 28.3954C64.6296 28.5344 64.8224 28.7374 64.9506 28.9814C65.0896 29.2495 65.1594 29.5489 65.1535 29.8518C65.1535 29.8726 65.1524 29.8945 65.1503 29.9175C65.1503 29.94 65.147 29.9641 65.147 29.9893H62.3401V29.6606H64.9068L64.7352 29.7915C64.7389 29.5709 64.687 29.353 64.5846 29.1584C64.4891 28.9792 64.3477 28.8295 64.1754 28.7251C63.9952 28.6191 63.7899 28.5651 63.5816 28.569C63.3735 28.5662 63.1685 28.6201 62.9879 28.7251C62.8122 28.8283 62.6693 28.9804 62.576 29.1633C62.4751 29.3617 62.4245 29.5825 62.4286 29.8058V29.8743C62.4237 30.1041 62.4796 30.3311 62.5906 30.5316C62.6982 30.7196 62.8559 30.873 63.0456 30.9741C63.2514 31.0831 63.4808 31.1379 63.7128 31.1335C63.9013 31.135 64.0881 31.0989 64.2629 31.0273C64.4329 30.9566 64.5836 30.8454 64.7023 30.703L64.9484 30.99C64.8033 31.1657 64.6179 31.3026 64.4086 31.3888C64.1831 31.4815 63.9415 31.5273 63.6982 31.5235V31.5235Z" fill="#212121"/>
<path d="M66.04 31.4923V26.8639H66.4762V29.1846L66.4147 29.8458L66.4578 30.5069V31.4928L66.04 31.4923ZM67.7058 31.5235C67.4391 31.5276 67.1761 31.4598 66.9437 31.3269C66.715 31.1928 66.5293 30.9946 66.4087 30.7561C66.2777 30.5071 66.2122 30.2056 66.2122 29.8518C66.2122 29.498 66.2788 29.1954 66.412 28.9442C66.5349 28.7076 66.7223 28.5117 66.9518 28.38C67.1827 28.2496 67.4432 28.183 67.7075 28.1867C67.9962 28.1819 68.2811 28.2539 68.5339 28.3954C68.7752 28.5318 68.9743 28.7338 69.1088 28.9787C69.246 29.2482 69.3177 29.5471 69.3177 29.8504C69.3177 30.1538 69.246 30.4527 69.1088 30.7222C68.9744 30.9687 68.7754 31.1726 68.5339 31.3115C68.2813 31.4554 67.9955 31.5285 67.7058 31.5235V31.5235ZM67.6751 31.1308C67.8904 31.1344 68.1027 31.0794 68.2899 30.9714C68.4717 30.8646 68.6211 30.7093 68.7217 30.5222C68.8268 30.3142 68.8815 30.0839 68.8815 29.8502C68.8815 29.6164 68.8268 29.3861 68.7217 29.1781C68.6202 28.9926 68.4709 28.8385 68.2899 28.7322C68.1027 28.6244 67.8903 28.5695 67.6751 28.5734C67.4588 28.5698 67.2455 28.6246 67.057 28.7322C66.875 28.8372 66.7255 28.9916 66.6252 29.1781C66.5222 29.3867 66.4687 29.6168 66.4687 29.8502C66.4687 30.0835 66.5222 30.3136 66.6252 30.5222C66.7246 30.7102 66.8743 30.8659 67.057 30.9714C67.2455 31.0792 67.4588 31.1342 67.6751 31.1308V31.1308Z" fill="#212121"/>
<path d="M71.0737 31.5235C70.8174 31.525 70.5625 31.486 70.318 31.4079C70.1148 31.3491 69.9249 31.2507 69.7588 31.1181L69.9558 30.7687C70.1098 30.8805 70.2796 30.9678 70.4594 31.0278C70.6677 31.1013 70.8867 31.1383 71.1072 31.1373C71.4149 31.1373 71.6357 31.0886 71.7711 30.9905C71.8347 30.9484 71.8867 30.8905 71.9222 30.8224C71.9577 30.7543 71.9756 30.6781 71.9741 30.6011C71.9768 30.5481 71.968 30.4952 71.9484 30.4461C71.9287 30.3969 71.8986 30.3528 71.8602 30.3168C71.7739 30.2425 71.672 30.1893 71.5622 30.1612C71.4268 30.1229 71.2893 30.0927 71.1504 30.0709C70.9985 30.0457 70.8479 30.0164 70.6986 29.9832C70.5566 29.9529 70.4192 29.9037 70.2899 29.837C70.1702 29.7753 70.0675 29.6842 69.9914 29.5719C69.9099 29.4372 69.8704 29.2806 69.8781 29.1227C69.8759 28.9508 69.9275 28.7826 70.0254 28.6423C70.1352 28.4918 70.285 28.3761 70.4573 28.3088C70.6796 28.2219 70.9166 28.1806 71.1547 28.1872C71.3665 28.1875 71.5773 28.2157 71.7819 28.271C71.9647 28.3159 72.139 28.3909 72.298 28.4928L72.1074 28.8483C71.9675 28.7495 71.8114 28.6767 71.6465 28.633C71.486 28.5896 71.3207 28.5675 71.1547 28.5673C70.8636 28.5673 70.6494 28.6182 70.5123 28.7201C70.4488 28.7627 70.3967 28.8206 70.3608 28.8887C70.3249 28.9568 70.3063 29.0329 70.3067 29.1101C70.3037 29.1644 70.3123 29.2186 70.3319 29.2692C70.3515 29.3197 70.3815 29.3654 70.42 29.4032C70.5073 29.4797 70.6102 29.5358 70.7212 29.5675C70.8562 29.6093 70.9938 29.6415 71.1331 29.6639C71.2825 29.6891 71.4322 29.7194 71.5822 29.7548C71.7241 29.7875 71.8622 29.8354 71.9941 29.8978C72.1147 29.955 72.2186 30.0431 72.2953 30.1536C72.376 30.2829 72.4156 30.4344 72.4086 30.5874C72.4123 30.7648 72.3572 30.9384 72.2521 31.0803C72.1337 31.2299 71.9759 31.3423 71.7971 31.4046C71.5651 31.4886 71.32 31.5288 71.0737 31.5235V31.5235Z" fill="#212121"/>
<path d="M73.4276 27.4943C73.3854 27.4953 73.3435 27.4875 73.3043 27.4714C73.2652 27.4553 73.2297 27.4312 73.2001 27.4007C73.1706 27.3715 73.1473 27.3366 73.1316 27.2979C73.1158 27.2593 73.1079 27.2179 73.1084 27.1761C73.1081 27.1351 73.1161 27.0946 73.1318 27.0569C73.1476 27.0192 73.1708 26.9852 73.2001 26.957C73.2303 26.9274 73.2659 26.9042 73.305 26.8887C73.344 26.8732 73.3857 26.8657 73.4276 26.8666C73.5116 26.8648 73.593 26.8962 73.6546 26.9543C73.6846 26.9819 73.7084 27.0158 73.7243 27.0536C73.7402 27.0914 73.7479 27.1322 73.7468 27.1734C73.7479 27.216 73.7406 27.2584 73.7253 27.298C73.71 27.3377 73.6871 27.3739 73.6579 27.4045C73.6277 27.4349 73.5917 27.4585 73.552 27.474C73.5124 27.4895 73.47 27.4964 73.4276 27.4943V27.4943ZM73.2066 31.4929V28.2174H73.6422V31.4923L73.2066 31.4929Z" fill="#212121"/>
<path d="M74.3564 28.5855V28.2174H76.3537V28.5855H74.3564ZM75.8808 31.5236C75.5782 31.5236 75.3443 31.4403 75.1791 31.2738C75.0139 31.1073 74.9321 30.8725 74.9335 30.5694V27.4944H75.3696V30.5442C75.3696 30.7355 75.4179 30.8832 75.5143 30.9873C75.6108 31.0914 75.7491 31.1432 75.9294 31.1429C76.1042 31.1492 76.2751 31.0892 76.4087 30.9747L76.5621 31.293C76.4727 31.3738 76.3666 31.4333 76.2517 31.4671C76.1315 31.5047 76.0065 31.5237 75.8808 31.5236V31.5236Z" fill="#212121"/>
<path d="M78.6103 31.5235C78.3019 31.5304 77.9969 31.4563 77.7251 31.3082C77.4772 31.1698 77.2718 30.9647 77.1313 30.7156C76.9845 30.4524 76.91 30.1541 76.9154 29.8518C76.9095 29.5517 76.9803 29.2553 77.121 28.9913C77.2536 28.7464 77.4491 28.5426 77.6868 28.4014C77.9323 28.2563 78.2123 28.182 78.4964 28.1867C78.7799 28.1812 79.0596 28.2533 79.3061 28.3954C79.5416 28.5345 79.7341 28.7374 79.8621 28.9814C80.0014 29.2494 80.0712 29.5489 80.0651 29.8518C80.0651 29.8726 80.064 29.8945 80.0619 29.9175C80.0619 29.94 80.0619 29.9641 80.0619 29.9893H77.2549V29.6606H79.8303L79.6581 29.7915C79.662 29.5709 79.6102 29.3529 79.5075 29.1584C79.4123 28.9791 79.2711 28.8294 79.0989 28.7251C78.9187 28.6191 78.7133 28.5651 78.5051 28.569C78.2969 28.5661 78.0919 28.62 77.9113 28.7251C77.7357 28.8283 77.5928 28.9804 77.4994 29.1633C77.3982 29.3616 77.3473 29.5825 77.3515 29.8058V29.8743C77.3467 30.1041 77.4026 30.3311 77.5135 30.5315C77.6209 30.7198 77.7787 30.8732 77.9685 30.9741C78.1741 31.0831 78.4033 31.1379 78.6352 31.1335C78.8238 31.1351 79.0109 31.0989 79.1858 31.0273C79.3558 30.9566 79.5065 30.8454 79.6252 30.703L79.8583 30.9867C79.7132 31.1623 79.5278 31.2992 79.3186 31.3855C79.0939 31.479 78.8531 31.5259 78.6103 31.5235V31.5235Z" fill="#212121"/>
<path d="M83.7001 31.5296C83.4453 31.5344 83.1923 31.4867 82.9562 31.3894C82.7542 31.3077 82.577 31.1731 82.4429 30.9994C82.3175 30.8331 82.2513 30.6287 82.255 30.4193C82.2532 30.2402 82.2955 30.0634 82.3781 29.905C82.4793 29.7262 82.6141 29.5693 82.7749 29.4432C83.0024 29.2615 83.2462 29.1018 83.503 28.9662C83.7116 28.8517 83.9138 28.7257 84.1087 28.5888C84.2297 28.5069 84.3348 28.4034 84.4191 28.2831C84.4795 28.1895 84.5115 28.08 84.5114 27.9682C84.5142 27.8946 84.5011 27.8213 84.4731 27.7534C84.4452 27.6855 84.403 27.6246 84.3494 27.5749C84.2415 27.4752 84.0867 27.4254 83.8852 27.4254C83.6693 27.4254 83.5012 27.4801 83.381 27.5897C83.3226 27.6435 83.2764 27.7096 83.2456 27.7834C83.2149 27.8572 83.2003 27.9369 83.2029 28.0169C83.2026 28.1018 83.2161 28.1862 83.2429 28.2667C83.279 28.3623 83.331 28.4508 83.3967 28.5285C83.4723 28.6246 83.5777 28.7451 83.713 28.89L85.9877 31.2667L85.7356 31.5597L83.3605 29.0834C83.2393 28.9562 83.1254 28.8219 83.0194 28.6813C82.9436 28.5823 82.8845 28.4713 82.8445 28.3527C82.8114 28.2464 82.7948 28.1355 82.7954 28.024C82.7893 27.8519 82.8349 27.682 82.9259 27.5367C83.017 27.3914 83.1493 27.2775 83.3055 27.2101C83.4875 27.1296 83.6846 27.0904 83.8831 27.0951C84.0636 27.0908 84.2429 27.1259 84.4088 27.198C84.5513 27.2605 84.6729 27.3634 84.7591 27.4944C84.846 27.6341 84.8898 27.797 84.8849 27.9622C84.8857 28.1172 84.8466 28.2697 84.7716 28.4047C84.6761 28.5634 84.5495 28.7005 84.3996 28.8073C84.1762 28.9699 83.9417 29.1164 83.6979 29.2455C83.4838 29.3621 83.2792 29.4956 83.0858 29.6448C82.9597 29.7417 82.8535 29.8626 82.7732 30.0008C82.7113 30.1166 82.6795 30.2465 82.6809 30.3782C82.6783 30.5275 82.7249 30.6735 82.8132 30.7929C82.909 30.9168 83.0365 31.0115 83.1819 31.0668C83.3554 31.1341 83.5402 31.1669 83.726 31.1632C83.9929 31.1679 84.2569 31.1058 84.4946 30.9824C84.7283 30.8537 84.9243 30.6648 85.063 30.4347C85.2307 30.1498 85.3439 29.8354 85.3966 29.5079L85.747 29.6202C85.6855 29.9935 85.5493 30.3501 85.347 30.668C85.1708 30.9393 84.9292 31.1604 84.6452 31.3105C84.3522 31.4597 84.0279 31.5349 83.7001 31.5296V31.5296Z" fill="#212121"/>
<path d="M87.6885 31.4922L89.6555 27.1262H90.1046L92.0716 31.4922H91.5917L89.7845 27.394H89.9691L88.1619 31.4922H87.6885ZM88.4631 30.3261L88.5986 29.9514H91.1L91.2355 30.3261H88.4631Z" fill="#212121"/>
<path d="M92.6934 32.7023V28.2174H93.1112V29.2033L93.068 29.8579L93.1295 30.5195V32.7023H92.6934ZM94.3592 31.5236C94.0945 31.5271 93.8337 31.4593 93.6035 31.3269C93.3742 31.1935 93.187 30.9967 93.0637 30.7595C92.9301 30.5119 92.8636 30.2093 92.8639 29.8519C92.8643 29.4944 92.9298 29.1918 93.0604 28.9442C93.1813 28.7077 93.3671 28.5118 93.5954 28.3801C93.8283 28.249 94.0912 28.1823 94.3575 28.1867C94.6462 28.182 94.9311 28.2539 95.184 28.3954C95.4258 28.5324 95.625 28.7355 95.7589 28.9815C95.8961 29.251 95.9678 29.5499 95.9678 29.8532C95.9678 30.1566 95.8961 30.4555 95.7589 30.725C95.6238 30.9702 95.4249 31.1732 95.184 31.3116C94.9323 31.4549 94.6477 31.528 94.3592 31.5236V31.5236ZM94.3284 31.1308C94.5437 31.1345 94.756 31.0794 94.9432 30.9714C95.125 30.8647 95.2744 30.7093 95.3751 30.5223C95.4853 30.3168 95.5411 30.0858 95.537 29.8519C95.5413 29.6189 95.4855 29.3889 95.3751 29.1847C95.2726 28.9956 95.121 28.8386 94.9368 28.7308C94.7525 28.623 94.5426 28.5686 94.33 28.5734C94.1131 28.5705 93.8996 28.6273 93.712 28.7377C93.53 28.8443 93.3806 28.9997 93.2801 29.1869C93.1725 29.392 93.1186 29.6217 93.1236 29.854C93.1189 30.0874 93.1727 30.3181 93.2801 30.5245C93.3795 30.7125 93.5292 30.8681 93.712 30.9736C93.9001 31.0804 94.1128 31.1347 94.3284 31.1308V31.1308Z" fill="#212121"/>
<path d="M96.8613 32.7023V28.2174H97.2791V29.2033L97.2359 29.8579L97.2975 30.5195V32.7023H96.8613ZM98.5271 31.5236C98.2625 31.5271 98.0017 31.4593 97.7714 31.3269C97.5422 31.1935 97.355 30.9967 97.2316 30.7595C97.0985 30.5119 97.0319 30.2093 97.0319 29.8519C97.0319 29.4944 97.0974 29.1918 97.2284 28.9442C97.3493 28.7077 97.5351 28.5118 97.7633 28.3801C97.9963 28.249 98.2591 28.1823 98.5255 28.1867C98.8142 28.182 99.0991 28.2539 99.3519 28.3954C99.5938 28.5324 99.7929 28.7355 99.9268 28.9815C100.064 29.251 100.136 29.5499 100.136 29.8532C100.136 30.1566 100.064 30.4555 99.9268 30.725C99.7918 30.9702 99.5929 31.1732 99.3519 31.3116C99.0999 31.4551 98.815 31.5282 98.5261 31.5236H98.5271ZM98.4964 31.1308C98.7117 31.1345 98.924 31.0794 99.1112 30.9714C99.293 30.8647 99.4423 30.7093 99.543 30.5223C99.6532 30.3168 99.709 30.0858 99.705 29.8519C99.7093 29.6189 99.6535 29.3889 99.543 29.1847C99.4406 28.9956 99.289 28.8386 99.1047 28.7308C98.9205 28.623 98.7106 28.5686 98.498 28.5734C98.2811 28.5704 98.0675 28.6272 97.8799 28.7377C97.698 28.8443 97.5486 28.9997 97.4481 29.1869C97.3404 29.392 97.2865 29.6217 97.2915 29.854C97.2868 30.0874 97.3407 30.3181 97.4481 30.5245C97.5475 30.7125 97.6972 30.8681 97.8799 30.9736C98.0678 31.0803 98.2801 31.1345 98.4953 31.1308H98.4964Z" fill="#212121"/>
<path d="M102.729 31.4923V27.1262H104.481C104.9 27.117 105.315 27.2121 105.689 27.4034C106.025 27.5781 106.306 27.8451 106.499 28.174C106.688 28.5215 106.788 28.9121 106.788 29.3092C106.788 29.7063 106.688 30.0969 106.499 30.4444C106.306 30.7733 106.025 31.0402 105.689 31.2145C105.343 31.3997 104.94 31.4923 104.481 31.4923H102.729ZM103.185 31.0929H104.457C104.801 31.1017 105.142 31.0236 105.45 30.8656C105.722 30.7219 105.949 30.5035 106.104 30.2352C106.257 29.9507 106.338 29.6317 106.338 29.3076C106.338 28.9834 106.257 28.6645 106.104 28.38C105.948 28.1139 105.721 27.8975 105.45 27.755C105.142 27.5969 104.801 27.5186 104.457 27.5271H103.185V31.0929Z" fill="#212121"/>
<path d="M109.087 31.5235C108.778 31.5304 108.474 31.4562 108.202 31.3082C107.954 31.1698 107.748 30.9647 107.608 30.7156C107.461 30.4524 107.387 30.1541 107.392 29.8518C107.386 29.5517 107.457 29.2553 107.598 28.9913C107.73 28.7464 107.926 28.5426 108.163 28.4014C108.409 28.2563 108.689 28.182 108.973 28.1867C109.256 28.1812 109.536 28.2533 109.783 28.3954C110.018 28.5345 110.211 28.7374 110.339 28.9814C110.478 29.2494 110.548 29.5489 110.542 29.8518C110.542 29.8726 110.541 29.8945 110.538 29.9175C110.538 29.94 110.536 29.9641 110.536 29.9893H107.729V29.6606H110.304L110.132 29.7915C110.136 29.5709 110.084 29.3529 109.981 29.1584C109.886 28.9791 109.745 28.8294 109.573 28.7251C109.392 28.6186 109.185 28.5646 108.976 28.569C108.768 28.5661 108.563 28.62 108.382 28.7251C108.207 28.8283 108.064 28.9804 107.971 29.1633C107.87 29.3617 107.819 29.5825 107.823 29.8058V29.8743C107.818 30.1041 107.874 30.3311 107.985 30.5315C108.092 30.7198 108.25 30.8732 108.44 30.9741C108.645 31.0832 108.875 31.138 109.107 31.1335C109.295 31.135 109.482 31.0989 109.657 31.0273C109.827 30.9566 109.978 30.8454 110.096 30.703L110.342 30.99C110.197 31.1658 110.012 31.3028 109.802 31.3888C109.575 31.4821 109.332 31.5279 109.087 31.5235V31.5235Z" fill="#212121"/>
<path d="M112.198 31.4923L110.766 28.2174H111.221L112.536 31.2552H112.32L113.654 28.2174H114.086L112.647 31.4923H112.198Z" fill="#212121"/>
<path d="M115.978 31.5235C115.67 31.5304 115.365 31.4562 115.093 31.3082C114.845 31.1698 114.64 30.9647 114.499 30.7156C114.353 30.4524 114.278 30.1541 114.284 29.8518C114.278 29.5517 114.349 29.2551 114.49 28.9913C114.622 28.7466 114.816 28.5427 115.053 28.4014C115.299 28.2563 115.579 28.182 115.863 28.1867C116.146 28.1812 116.426 28.2533 116.673 28.3954C116.908 28.5345 117.101 28.7374 117.229 28.9814C117.368 29.2494 117.438 29.5489 117.432 29.8518C117.432 29.8726 117.431 29.8945 117.428 29.9175C117.428 29.94 117.428 29.9641 117.428 29.9893H114.619V29.6606H117.195L117.022 29.7915C117.026 29.5709 116.975 29.3529 116.872 29.1584C116.777 28.9791 116.636 28.8294 116.463 28.7251C116.282 28.6187 116.076 28.5647 115.867 28.569C115.659 28.5663 115.454 28.6202 115.273 28.7251C115.098 28.8287 114.955 28.9806 114.861 29.1633C114.76 29.3617 114.71 29.5825 114.714 29.8058V29.8743C114.709 30.1041 114.765 30.3311 114.876 30.5315C114.983 30.7198 115.141 30.8732 115.331 30.9741C115.536 31.0831 115.766 31.1379 115.997 31.1335C116.186 31.1351 116.373 31.099 116.547 31.0273C116.718 30.9566 116.869 30.8454 116.987 30.703L117.233 30.99C117.088 31.1656 116.902 31.3025 116.693 31.3888C116.466 31.482 116.223 31.5279 115.978 31.5235Z" fill="#212121"/>
<path d="M118.319 31.4923V26.8639H118.756V31.4923H118.319Z" fill="#212121"/>
<path d="M121.288 31.5235C120.994 31.5288 120.703 31.4545 120.446 31.3082C120.203 31.1665 120.001 30.9609 119.862 30.7128C119.721 30.4473 119.647 30.1504 119.647 29.8488C119.647 29.5471 119.721 29.2502 119.862 28.9847C120.002 28.7397 120.203 28.5373 120.446 28.3986C120.707 28.2585 120.998 28.1853 121.293 28.1853C121.589 28.1853 121.879 28.2585 122.14 28.3986C122.383 28.5372 122.585 28.7399 122.724 28.9852C122.869 29.2488 122.943 29.547 122.936 29.849C122.942 30.1509 122.868 30.4489 122.724 30.7128C122.586 30.9615 122.383 31.1666 122.137 31.3055C121.878 31.4524 121.585 31.5276 121.288 31.5235V31.5235ZM121.288 31.1308C121.506 31.1349 121.72 31.0799 121.91 30.9714C122.09 30.8648 122.238 30.7093 122.337 30.5222C122.44 30.3136 122.493 30.0835 122.493 29.8501C122.493 29.6168 122.44 29.3867 122.337 29.178C122.237 28.9925 122.09 28.8382 121.91 28.7322C121.721 28.628 121.51 28.5734 121.295 28.5734C121.08 28.5734 120.869 28.628 120.68 28.7322C120.499 28.8383 120.35 28.9924 120.248 29.178C120.143 29.3861 120.088 29.6164 120.088 29.8501C120.088 30.0838 120.143 30.3142 120.248 30.5222C120.348 30.7085 120.495 30.8637 120.675 30.9714C120.862 31.0798 121.074 31.1349 121.288 31.1308V31.1308Z" fill="#212121"/>
<path d="M123.827 32.7023V28.2174H124.245V29.2033L124.202 29.8579L124.264 30.5195V32.7023H123.827ZM125.493 31.5236C125.229 31.5271 124.968 31.4592 124.738 31.3269C124.509 31.1932 124.322 30.9965 124.198 30.7595C124.065 30.5119 123.999 30.2093 123.998 29.8518C123.998 29.4944 124.064 29.1918 124.195 28.9442C124.316 28.7079 124.502 28.512 124.73 28.3801C124.963 28.249 125.226 28.1824 125.492 28.1867C125.781 28.182 126.066 28.254 126.319 28.3954C126.561 28.5324 126.76 28.7355 126.894 28.9815C127.031 29.251 127.103 29.5499 127.103 29.8532C127.103 30.1566 127.031 30.4555 126.894 30.7249C126.759 30.9702 126.56 31.1732 126.319 31.3116C126.067 31.4549 125.782 31.528 125.493 31.5236V31.5236ZM125.463 31.1308C125.678 31.1345 125.89 31.0795 126.077 30.9714C126.259 30.8646 126.408 30.7093 126.509 30.5223C126.619 30.3168 126.675 30.0858 126.671 29.8518C126.675 29.6189 126.619 29.3889 126.509 29.1847C126.406 28.9957 126.255 28.8388 126.07 28.731C125.886 28.6233 125.676 28.5688 125.464 28.5734C125.247 28.5704 125.033 28.6272 124.846 28.7377C124.664 28.8443 124.514 28.9997 124.414 29.1869C124.306 29.3919 124.252 29.6217 124.257 29.854C124.252 30.0874 124.306 30.3182 124.414 30.5245C124.513 30.7125 124.663 30.8681 124.846 30.9736C125.034 31.0805 125.247 31.1348 125.463 31.1308Z" fill="#212121"/>
<path d="M132.029 28.1866C132.266 28.1809 132.501 28.2334 132.715 28.3395C132.91 28.4423 133.069 28.6047 133.169 28.8039C133.277 29.0121 133.331 29.2741 133.331 29.59V31.4923H132.894V29.6332C132.894 29.2881 132.814 29.0272 132.652 28.8505C132.49 28.6738 132.262 28.5854 131.966 28.5854C131.766 28.5803 131.568 28.6288 131.392 28.7262C131.229 28.82 131.098 28.9612 131.016 29.1315C130.924 29.3311 130.878 29.5501 130.885 29.7707V31.4923H130.448V29.6332C130.448 29.2881 130.366 29.0272 130.202 28.8505C130.039 28.6738 129.809 28.5854 129.514 28.5854C129.314 28.5811 129.117 28.6296 128.942 28.7262C128.778 28.8189 128.646 28.9604 128.564 29.1315C128.471 29.331 128.426 29.55 128.432 29.7707V31.4923H127.995V28.2173H128.413V29.1036L128.345 28.9474C128.441 28.7141 128.608 28.5183 128.822 28.3893C129.058 28.2497 129.327 28.1795 129.6 28.1866C129.887 28.1778 130.168 28.2618 130.405 28.4265C130.626 28.5865 130.77 28.8266 130.837 29.1468L130.665 29.0784C130.758 28.8134 130.934 28.5867 131.166 28.4326C131.422 28.2639 131.723 28.1781 132.029 28.1866Z" fill="#212121"/>
<path d="M135.89 31.5235C135.581 31.5303 135.276 31.4561 135.004 31.3082C134.756 31.1699 134.551 30.9648 134.411 30.7156C134.264 30.4524 134.189 30.1541 134.195 29.8518C134.189 29.5517 134.26 29.2551 134.401 28.9913C134.533 28.7464 134.729 28.5426 134.966 28.4014C135.213 28.2616 135.491 28.1877 135.774 28.1866C136.056 28.1856 136.335 28.2574 136.583 28.3953C136.818 28.5344 137.011 28.7374 137.139 28.9814C137.278 29.2495 137.348 29.5489 137.342 29.8518C137.342 29.8726 137.341 29.8945 137.339 29.9175C137.339 29.94 137.336 29.9641 137.336 29.9893H134.529V29.6606H137.105L136.933 29.7915C136.936 29.5709 136.885 29.3529 136.782 29.1583C136.687 28.9791 136.545 28.8294 136.373 28.7251C136.193 28.619 135.987 28.565 135.779 28.569C135.57 28.5658 135.364 28.6197 135.183 28.7251C135.007 28.8285 134.864 28.9805 134.771 29.1633C134.67 29.3617 134.619 29.5825 134.623 29.8058V29.8742C134.618 30.1041 134.674 30.3311 134.785 30.5315C134.893 30.7195 135.05 30.873 135.24 30.9741C135.445 31.083 135.675 31.1378 135.907 31.1335C136.095 31.135 136.282 31.0989 136.457 31.0272C136.627 30.9567 136.778 30.8455 136.896 30.703L137.143 30.99C136.997 31.1657 136.812 31.3026 136.603 31.3888C136.376 31.4818 136.134 31.5276 135.89 31.5235V31.5235Z" fill="#212121"/>
<path d="M139.877 28.1867C140.116 28.1814 140.353 28.2338 140.568 28.3395C140.768 28.4417 140.931 28.6039 141.035 28.804C141.148 29.0122 141.205 29.2742 141.205 29.59V31.4923H140.768V29.6333C140.768 29.2882 140.683 29.0273 140.513 28.8506C140.343 28.6738 140.104 28.5855 139.797 28.5855C139.589 28.5805 139.383 28.6289 139.198 28.7262C139.029 28.8177 138.892 28.9591 138.804 29.1316C138.707 29.3299 138.66 29.5494 138.666 29.7708V31.4923H138.229V28.2174H138.647V29.1157L138.58 28.9475C138.68 28.7126 138.853 28.5168 139.072 28.3894C139.317 28.249 139.595 28.1789 139.877 28.1867Z" fill="#212121"/>
<path d="M141.88 28.5855V28.2174H143.877V28.5855H141.88ZM143.404 31.5236C143.102 31.5236 142.868 31.4403 142.703 31.2738C142.537 31.1073 142.455 30.8725 142.457 30.5694V27.4944H142.893V30.5442C142.893 30.7355 142.941 30.8832 143.038 30.9873C143.134 31.0914 143.273 31.1432 143.453 31.1429C143.628 31.1492 143.799 31.0892 143.932 30.9747L144.085 31.293C143.996 31.3738 143.89 31.4333 143.775 31.4671C143.655 31.5046 143.53 31.5237 143.405 31.5236H143.404Z" fill="#212121"/>
<path d="M67.1736 11.0254C67.1756 12.7401 66.5841 14.3962 65.5111 15.6806C64.438 16.965 62.9577 17.7888 61.35 17.9961L61.3184 18H55.1611V9.05572H57.9696V15.0291H61.13C61.8972 14.901 62.6095 14.5293 63.1728 13.9632C63.7361 13.397 64.1237 12.6632 64.2843 11.8587C64.3381 11.5835 64.3651 11.3032 64.3652 11.0222C64.3661 10.396 64.2293 9.77819 63.9656 9.21772C63.7019 8.65725 63.3185 8.16953 62.8457 7.79323C62.3912 7.42684 61.8643 7.17388 61.3044 7.05324C61.1118 7.01235 60.9166 6.98697 60.7204 6.97731H55.1617V3.99997L61.0467 4.02313C62.714 4.15688 64.2718 4.95279 65.4082 6.25135C66.5445 7.5499 67.1753 9.25516 67.1742 11.0254H67.1736Z" fill="#212121"/>
<path d="M82.191 3.99997V6.97359H69.1768V3.99997H82.191ZM72.271 15.0264H82.191V18H69.1768V9.027L72.2703 9.04566H80.8922V12.0193H72.271V15.0264Z" fill="#212121"/>
<path d="M95.2044 4.076V18H94.5135L92.4759 15.9158L89.0547 12.4171L87.0789 10.3956L84.1924 7.44374V3.99997H84.9082L92.3173 11.5782V4.076H95.2044ZM84.1924 10.3547L87.0789 13.3065V17.9814H84.1924V10.3547Z" fill="#212121"/>
<path d="M100.211 3.99997V18H97.208V3.99997H100.211Z" fill="#212121"/>
<path d="M114.225 3.99997V6.97359H102.212V3.99997H114.225ZM105.068 15.0264H114.225V18H102.212V9.027L105.067 9.04566H113.026V12.0193H105.068V15.0264Z" fill="#212121"/>
<path d="M127.24 15.0475V18H116.228V3.99997H119.167V15.0475H127.24Z" fill="#212121"/>
<path d="M149.667 11.6536C150.015 12.299 150.196 13.0296 150.193 13.7724C150.19 14.5153 150.003 15.2443 149.651 15.8868C149.299 16.5292 148.793 17.0624 148.185 17.4333C147.577 17.8041 146.888 17.9995 146.186 18H142.21C141.707 18.0006 141.209 17.8963 140.745 17.6929C140.28 17.4895 139.858 17.1911 139.502 16.8148C139.147 16.4384 138.865 15.9915 138.673 15.4996C138.48 15.0077 138.382 14.4805 138.383 13.9482H141.132C141.132 14.1862 141.202 14.4182 141.333 14.6118C141.463 14.8054 141.648 14.951 141.861 15.0281H146.186C146.346 15.0319 146.505 15.0018 146.654 14.9397C146.802 14.8775 146.938 14.7846 147.052 14.6662C147.167 14.5479 147.257 14.4065 147.319 14.2505C147.382 14.0944 147.413 13.9268 147.413 13.7576C147.413 13.5883 147.382 13.4207 147.319 13.2646C147.257 13.1086 147.167 12.9672 147.052 12.8489C146.938 12.7305 146.802 12.6376 146.654 12.5754C146.505 12.5133 146.346 12.4832 146.186 12.487H142.392C141.855 12.5056 141.32 12.4096 140.818 12.2047C140.317 11.9998 139.859 11.6903 139.473 11.2945C139.087 10.8988 138.78 10.4248 138.57 9.90087C138.36 9.37693 138.252 8.81369 138.252 8.24463C138.252 7.67558 138.36 7.11234 138.57 6.5884C138.78 6.06445 139.087 5.5905 139.473 5.19473C139.859 4.79895 140.317 4.48943 140.818 4.28457C141.32 4.07971 141.855 3.98369 142.392 4.00222H146.437C147.453 4.00222 148.426 4.4291 149.144 5.18894C149.862 5.94879 150.265 6.97936 150.265 8.05395H147.516C147.516 7.81604 147.445 7.58416 147.315 7.39061C147.184 7.19706 146.999 7.05147 146.787 6.97413H142.392C142.079 6.9816 141.78 7.11874 141.561 7.35619C141.342 7.59364 141.219 7.91254 141.219 8.24463C141.219 8.57673 141.342 8.89563 141.561 9.13308C141.78 9.37053 142.079 9.50767 142.392 9.51514H146.188C146.894 9.5168 147.587 9.71531 148.198 10.0907C148.809 10.4661 149.316 11.0051 149.667 11.6536V11.6536Z" fill="#212121"/>
<path d="M165.282 11C165.282 12.3845 164.871 13.7379 164.101 14.889C163.331 16.0402 162.236 16.9374 160.956 17.4672C159.675 17.997 158.266 18.1356 156.907 17.8654C155.548 17.5953 154.299 16.9285 153.319 15.9495C152.339 14.9705 151.671 13.7231 151.401 12.3652C151.131 11.0073 151.27 9.59981 151.8 8.32074C152.331 7.04167 153.229 5.94846 154.381 5.17937C155.534 4.41028 156.889 3.99984 158.275 3.99997C160.133 4.00219 161.914 4.74042 163.227 6.05271C164.541 7.36501 165.28 9.14419 165.282 11V11ZM158.275 6.92175C157.467 6.92162 156.678 7.16069 156.007 7.60874C155.335 8.05678 154.812 8.69367 154.503 9.43885C154.193 10.184 154.112 11.0041 154.27 11.7952C154.427 12.5863 154.816 13.3131 155.387 13.8835C155.958 14.4539 156.686 14.8424 157.478 14.9998C158.27 15.1572 159.09 15.0765 159.836 14.7678C160.583 14.4592 161.22 13.9364 161.669 13.2658C162.117 12.5951 162.357 11.8066 162.357 11C162.355 9.91928 161.924 8.88343 161.159 8.11945C160.394 7.35547 159.357 6.9257 158.275 6.92433V6.92175Z" fill="#212121"/>
<path d="M178.296 4.076V18H177.609L175.568 15.9158L172.146 12.4171L170.171 10.3956L167.284 7.44374V3.99997H168L175.409 11.5782V4.076H178.296ZM167.284 10.3547L170.171 13.3077V17.9827H167.284V10.3547Z" fill="#212121"/>
<path d="M183.301 3.99997V18H180.298V3.99997H183.301Z" fill="#212121"/>
<path d="M196.721 11.6536C197.068 12.2988 197.25 13.0292 197.247 13.7718C197.244 14.5144 197.057 15.2433 196.705 15.8856C196.353 16.528 195.848 17.0613 195.24 17.4323C194.632 17.8033 193.943 17.9991 193.242 18H189.266C188.763 18.0006 188.265 17.8963 187.8 17.6929C187.335 17.4895 186.913 17.1911 186.558 16.8148C186.202 16.4384 185.92 15.9915 185.728 15.4996C185.536 15.0077 185.437 14.4805 185.438 13.9482H188.187C188.187 14.1862 188.258 14.4182 188.388 14.6118C188.519 14.8054 188.704 14.951 188.916 15.0281H193.242C193.402 15.0319 193.561 15.0018 193.709 14.9397C193.858 14.8775 193.994 14.7846 194.108 14.6662C194.222 14.5479 194.313 14.4065 194.375 14.2505C194.437 14.0944 194.469 13.9268 194.469 13.7576C194.469 13.5883 194.437 13.4207 194.375 13.2646C194.313 13.1086 194.222 12.9672 194.108 12.8489C193.994 12.7305 193.858 12.6376 193.709 12.5754C193.561 12.5133 193.402 12.4832 193.242 12.487H189.444C188.907 12.5056 188.372 12.4096 187.87 12.2047C187.369 11.9998 186.911 11.6903 186.525 11.2945C186.139 10.8988 185.831 10.4248 185.622 9.90087C185.412 9.37693 185.304 8.81369 185.304 8.24463C185.304 7.67558 185.412 7.11234 185.622 6.5884C185.831 6.06445 186.139 5.5905 186.525 5.19473C186.911 4.79895 187.369 4.48943 187.87 4.28457C188.372 4.07971 188.907 3.98369 189.444 4.00222H193.489C193.992 4.00154 194.49 4.10588 194.955 4.30926C195.419 4.51264 195.842 4.81106 196.197 5.18743C196.553 5.56381 196.835 6.01073 197.027 6.50262C197.219 6.9945 197.317 7.52168 197.317 8.05395H194.568C194.568 7.81604 194.497 7.58416 194.367 7.39061C194.236 7.19706 194.052 7.05147 193.839 6.97413H189.444C189.131 6.9816 188.832 7.11874 188.613 7.35619C188.394 7.59364 188.271 7.91254 188.271 8.24463C188.271 8.57673 188.394 8.89563 188.613 9.13308C188.832 9.37053 189.131 9.50767 189.444 9.51514H193.242C193.948 9.51672 194.641 9.7152 195.252 10.0906C195.863 10.466 196.369 11.0051 196.721 11.6536V11.6536Z" fill="#212121"/>
</svg>
