<svg width="198" height="36" viewBox="0 0 198 36" fill="none" xmlns="http://www.w3.org/2000/svg">
<path d="M27.8653 0H8.37718C3.80668 0 0.101562 3.70108 0.101562 8.26658V27.7334C0.101562 32.2989 3.80668 36 8.37718 36H27.8653C32.4358 36 36.1409 32.2989 36.1409 27.7334V8.26658C36.1409 3.70108 32.4358 0 27.8653 0Z" fill="#5081FF"/>
<path d="M10.3659 23.8491C10.4286 23.9458 10.4717 24.054 10.4928 24.1675C10.5139 24.2809 10.5126 24.3975 10.4889 24.5104C10.4652 24.6234 10.4196 24.7305 10.3546 24.8257C10.2897 24.9209 10.2068 25.0024 10.1105 25.0654C10.0143 25.1284 9.90666 25.1718 9.79375 25.193C9.68085 25.2142 9.56489 25.2128 9.4525 25.189C9.34011 25.1652 9.2335 25.1193 9.13874 25.0541C9.04398 24.9888 8.96294 24.9055 8.90023 24.8088C7.7355 23.0078 7.11359 20.9069 7.1094 18.759C7.1052 16.6111 7.71888 14.5078 8.87657 12.7023C8.93889 12.6053 9.01961 12.5216 9.11412 12.456C9.20863 12.3903 9.31507 12.3441 9.42738 12.3198C9.53968 12.2955 9.65565 12.2937 9.76865 12.3144C9.88166 12.3352 9.98949 12.3781 10.086 12.4407C10.1825 12.5033 10.2658 12.5844 10.3311 12.6794C10.3964 12.7744 10.4424 12.8813 10.4666 12.9942C10.4908 13.1071 10.4926 13.2236 10.4719 13.3372C10.4513 13.4507 10.4086 13.5591 10.3463 13.6561C9.96758 14.2473 9.65596 14.8794 9.41722 15.5403C8.9243 16.9045 8.75342 18.365 8.91806 19.8068C9.08269 21.2486 9.57833 22.6327 10.3659 23.8491ZM13.2486 10.7964C14.7824 9.85026 16.5558 9.37005 18.355 9.41367C20.1542 9.45729 21.9025 10.0229 23.3891 11.0423C23.5806 11.1738 23.8163 11.2235 24.0443 11.1804C24.2723 11.1374 24.4739 11.005 24.6048 10.8126C24.7357 10.6201 24.7851 10.3833 24.7423 10.1542C24.6994 9.92509 24.5677 9.72248 24.3762 9.59094C22.6104 8.38075 20.5341 7.70928 18.3973 7.65739C16.2606 7.60549 14.1544 8.17538 12.3325 9.29843C12.14 9.42295 12.0038 9.61829 11.953 9.84257C11.9022 10.0668 11.9409 10.3022 12.0607 10.4982C12.1805 10.6941 12.372 10.8351 12.5941 10.8909C12.8162 10.9466 13.0511 10.9127 13.2486 10.7964ZM29.1326 18.7504C29.0986 16.6496 28.4761 14.601 27.3366 12.8395C27.21 12.6442 27.0113 12.5075 26.7843 12.4593C26.5573 12.4112 26.3206 12.4557 26.1263 12.5829C25.9319 12.7102 25.7958 12.9098 25.7479 13.1379C25.7 13.366 25.7443 13.6039 25.8709 13.7992C26.83 15.2825 27.3542 17.0072 27.3835 18.7759C27.3995 19.9117 27.2086 21.0408 26.8201 22.1075C26.5813 22.7685 26.2695 23.4006 25.8906 23.9918C25.8282 24.0888 25.7855 24.1971 25.7649 24.3107C25.7442 24.4243 25.746 24.5408 25.7702 24.6537C25.7944 24.7665 25.8404 24.8735 25.9057 24.9685C25.9711 25.0634 26.0543 25.1445 26.1508 25.2072C26.2473 25.2698 26.3552 25.3127 26.4682 25.3335C26.5812 25.3542 26.6971 25.3524 26.8094 25.3281C26.9217 25.3038 27.0282 25.2575 27.1227 25.1919C27.2172 25.1263 27.2979 25.0426 27.3602 24.9456C28.5423 23.0996 29.1586 20.9453 29.1326 18.7504ZM22.9882 26.8519C22.3912 27.2192 21.7553 27.5184 21.0922 27.7438C19.724 28.2081 18.2673 28.347 16.8367 28.1495C15.406 27.952 14.0405 27.4235 12.8477 26.6056C12.7529 26.5404 12.6462 26.4947 12.5338 26.471C12.4214 26.4473 12.3054 26.4461 12.1925 26.4674C12.0796 26.4887 11.972 26.5322 11.8759 26.5953C11.7797 26.6584 11.6968 26.74 11.632 26.8353C11.5672 26.9306 11.5217 27.0378 11.4981 27.1507C11.4745 27.2637 11.4733 27.3802 11.4945 27.4937C11.5158 27.6071 11.559 27.7152 11.6218 27.8119C11.6846 27.9085 11.7658 27.9918 11.8606 28.0569C13.5877 29.2409 15.6119 29.9118 17.701 29.9928C17.8358 29.9979 17.9705 30.0003 18.105 30C20.1522 29.9949 22.1585 29.4239 23.9043 28.3494C24.0022 28.289 24.0872 28.2098 24.1546 28.1163C24.222 28.0228 24.2704 27.9169 24.297 27.8046C24.3237 27.6924 24.3281 27.5759 24.31 27.4619C24.2918 27.348 24.2515 27.2387 24.1914 27.1404C24.1312 27.042 24.0524 26.9566 23.9594 26.8888C23.8664 26.8211 23.761 26.7725 23.6493 26.7457C23.5375 26.7189 23.4217 26.7145 23.3082 26.7327C23.1948 26.7509 23.0861 26.7914 22.9882 26.8519ZM21.4386 18.8683C20.0725 18.1658 18.8247 18.1236 17.7233 18.0864C16.6518 18.05 15.8058 18.0213 14.9661 17.4497C14.1665 16.9064 13.5705 15.9751 13.1937 14.6821C13.1614 14.5713 13.1078 14.468 13.0358 14.378C12.9638 14.2881 12.8749 14.2132 12.7742 14.1578C12.6734 14.1024 12.5628 14.0674 12.4486 14.055C12.3344 14.0425 12.2189 14.0528 12.1086 14.0852C11.9984 14.1176 11.8955 14.1715 11.806 14.2438C11.7165 14.3162 11.642 14.4055 11.5869 14.5068C11.5317 14.608 11.497 14.7192 11.4846 14.834C11.4722 14.9487 11.4824 15.0648 11.5146 15.1756C12.0088 16.8715 12.8401 18.1263 13.9852 18.9056C15.2429 19.7607 16.4742 19.8029 17.6644 19.8428C18.6716 19.8769 19.6234 19.9092 20.6417 20.4332C21.6328 20.9429 22.4654 21.8069 23.1155 23.0008C23.2268 23.2052 23.4144 23.3569 23.6371 23.4223C23.8597 23.4878 24.0991 23.4617 24.3026 23.3498C24.506 23.2379 24.6569 23.0493 24.7221 22.8256C24.7872 22.6019 24.7612 22.3613 24.6499 22.1569C23.8284 20.6485 22.7485 19.5418 21.4386 18.8683ZM17.3313 11.1459L17.2889 15.7144C17.2868 15.9476 17.3769 16.172 17.5394 16.3384C17.7019 16.5048 17.9235 16.5996 18.1555 16.6018H18.1639C18.394 16.6011 18.6145 16.5094 18.7777 16.3465C18.9409 16.1836 19.0336 15.9626 19.0359 15.7315L19.0805 11.1625C19.0779 10.9325 18.9856 10.7126 18.8236 10.5501C18.6615 10.3876 18.4425 10.2954 18.2136 10.2933C17.9846 10.2912 17.764 10.3793 17.599 10.5388C17.434 10.6983 17.3382 10.916 17.3313 11.1459ZM18.1425 27.2548C18.3731 27.2546 18.5942 27.1631 18.758 27.0001C18.9218 26.837 19.0149 26.6156 19.0171 26.3839L19.0595 21.815C19.0606 21.6996 19.039 21.5851 18.996 21.4781C18.9531 21.371 18.8895 21.2735 18.809 21.1912C18.7286 21.1088 18.6328 21.0432 18.5271 20.998C18.4213 20.9529 18.3078 20.9291 18.193 20.928H18.1845C17.954 20.9282 17.7329 21.0197 17.5692 21.1828C17.4055 21.3458 17.3125 21.5672 17.3103 21.7989L17.2679 26.3673C17.2668 26.4828 17.2883 26.5973 17.3313 26.7043C17.3742 26.8114 17.4377 26.9089 17.5181 26.9913C17.5985 27.0737 17.6943 27.1394 17.8 27.1846C17.9057 27.2298 18.0192 27.2536 18.134 27.2548H18.1425ZM18.2407 5.77392C18.4153 5.77401 18.586 5.72206 18.7312 5.62466C18.8764 5.52725 18.9896 5.38876 19.0565 5.2267C19.1234 5.06463 19.1409 4.88628 19.1069 4.7142C19.0729 4.54211 18.9889 4.38403 18.8654 4.25994C18.742 4.13586 18.5848 4.05134 18.4135 4.01708C18.2423 3.98282 18.0648 4.00035 17.9035 4.06747C17.7422 4.13459 17.6043 4.24828 17.5073 4.39414C17.4103 4.54001 17.3586 4.71152 17.3586 4.88696C17.3586 5.12189 17.4513 5.34722 17.6164 5.5135C17.7816 5.67979 18.0056 5.77344 18.2394 5.77392H18.2407Z" fill="white"/>
<path d="M56.906 31.4923L55.4551 27.1262H55.9225L57.2807 31.2343H57.0469L58.4504 27.1262H58.8682L60.2517 31.2343H60.0298L61.4009 27.1262H61.8371L60.3867 31.4923H59.9073L58.5854 27.594H58.7084L57.3805 31.4923H56.906Z" fill="#E4E4E4"/>
<path d="M63.6987 31.5234C63.3903 31.5303 63.0853 31.4561 62.8135 31.3082C62.5655 31.1699 62.36 30.9648 62.2197 30.7155C62.0729 30.4523 61.9984 30.154 62.0038 29.8517C61.9978 29.5516 62.0688 29.255 62.21 28.9912C62.3424 28.7464 62.5377 28.5425 62.7751 28.4013C63.0207 28.2562 63.3007 28.182 63.5848 28.1866C63.8683 28.1811 64.148 28.2532 64.3945 28.3953C64.6301 28.5343 64.8228 28.7373 64.9511 28.9813C65.0901 29.2494 65.1599 29.5488 65.154 29.8517C65.154 29.8725 65.1529 29.8944 65.1508 29.9174C65.1508 29.9399 65.1475 29.964 65.1475 29.9892H62.3406V29.6605H64.9073L64.7357 29.7915C64.7394 29.5708 64.6875 29.3529 64.5851 29.1583C64.4896 28.9791 64.3482 28.8295 64.1759 28.725C63.9957 28.619 63.7904 28.565 63.5821 28.5689C63.374 28.5661 63.169 28.62 62.9884 28.725C62.8127 28.8283 62.6698 28.9803 62.5765 29.1632C62.4756 29.3617 62.425 29.5824 62.4291 29.8057V29.8742C62.4242 30.104 62.4801 30.331 62.5911 30.5315C62.6987 30.7195 62.8564 30.8729 63.0461 30.974C63.2519 31.083 63.4813 31.1378 63.7133 31.1334C63.9017 31.1349 64.0886 31.0988 64.2634 31.0272C64.4334 30.9565 64.5841 30.8453 64.7027 30.7029L64.9489 30.9899C64.8038 31.1656 64.6184 31.3025 64.4091 31.3887C64.1836 31.4814 63.942 31.5272 63.6987 31.5234Z" fill="#E4E4E4"/>
<path d="M66.041 31.4922V26.8638H66.4772V29.1846L66.4156 29.8457L66.4588 30.5068V31.4927L66.041 31.4922ZM67.7068 31.5234C67.4401 31.5276 67.177 31.4597 66.9446 31.3268C66.716 31.1927 66.5302 30.9945 66.4097 30.756C66.2787 30.507 66.2132 30.2056 66.2132 29.8517C66.2132 29.4979 66.2798 29.1953 66.4129 28.9441C66.5359 28.7075 66.7233 28.5116 66.9527 28.3799C67.1836 28.2495 67.4442 28.1829 67.7084 28.1866C67.9971 28.1818 68.282 28.2538 68.5349 28.3953C68.7762 28.5317 68.9753 28.7337 69.1098 28.9786C69.247 29.2481 69.3187 29.547 69.3187 29.8503C69.3187 30.1537 69.247 30.4526 69.1098 30.7221C68.9754 30.9686 68.7764 31.1726 68.5349 31.3114C68.2822 31.4553 67.9965 31.5284 67.7068 31.5234ZM67.6761 31.1307C67.8914 31.1343 68.1037 31.0793 68.2909 30.9713C68.4727 30.8645 68.622 30.7092 68.7227 30.5221C68.8277 30.3141 68.8825 30.0838 68.8825 29.8501C68.8825 29.6164 68.8277 29.386 68.7227 29.178C68.6212 28.9925 68.4719 28.8384 68.2909 28.7321C68.1036 28.6243 67.8913 28.5695 67.6761 28.5733C67.4598 28.5697 67.2465 28.6245 67.058 28.7321C66.876 28.8371 66.7265 28.9915 66.6262 29.178C66.5232 29.3866 66.4696 29.6167 66.4696 29.8501C66.4696 30.0834 66.5232 30.3135 66.6262 30.5221C66.7256 30.7101 66.8753 30.8658 67.058 30.9713C67.2464 31.0791 67.4598 31.1341 67.6761 31.1307Z" fill="#E4E4E4"/>
<path d="M71.0747 31.5235C70.8184 31.525 70.5635 31.486 70.319 31.4079C70.1158 31.3491 69.9258 31.2507 69.7598 31.1182L69.9568 30.7687C70.1107 30.8805 70.2806 30.9679 70.4604 31.0278C70.6686 31.1013 70.8877 31.1384 71.1082 31.1373C71.4159 31.1373 71.6366 31.0886 71.7721 30.9905C71.8357 30.9484 71.8877 30.8906 71.9232 30.8224C71.9587 30.7543 71.9766 30.6782 71.9751 30.6011C71.9778 30.5481 71.969 30.4952 71.9493 30.4461C71.9297 30.397 71.8996 30.3528 71.8612 30.3168C71.7749 30.2426 71.673 30.1893 71.5632 30.1613C71.4278 30.1229 71.2903 30.0927 71.1514 30.0709C70.9995 30.0457 70.8489 30.0165 70.6996 29.9832C70.5576 29.9529 70.4202 29.9037 70.2909 29.837C70.1712 29.7753 70.0685 29.6842 69.9924 29.5719C69.9109 29.4372 69.8714 29.2806 69.8791 29.1227C69.8769 28.9508 69.9285 28.7827 70.0264 28.6424C70.1362 28.4918 70.286 28.3761 70.4583 28.3088C70.6805 28.222 70.9176 28.1806 71.1557 28.1872C71.3674 28.1876 71.5783 28.2157 71.7829 28.271C71.9657 28.316 72.14 28.3909 72.299 28.4928L72.1084 28.8483C71.9685 28.7496 71.8124 28.6767 71.6474 28.6331C71.487 28.5897 71.3217 28.5676 71.1557 28.5673C70.8645 28.5673 70.6504 28.6183 70.5133 28.7202C70.4498 28.7627 70.3977 28.8206 70.3618 28.8887C70.3259 28.9568 70.3073 29.0329 70.3077 29.1101C70.3047 29.1644 70.3133 29.2186 70.3329 29.2692C70.3524 29.3198 70.3825 29.3655 70.421 29.4032C70.5083 29.4797 70.6111 29.5358 70.7222 29.5675C70.8571 29.6093 70.9948 29.6416 71.1341 29.6639C71.2834 29.6891 71.4331 29.7194 71.5832 29.7548C71.7251 29.7875 71.8632 29.8355 71.9951 29.8978C72.1157 29.955 72.2195 30.0432 72.2963 30.1536C72.377 30.283 72.4166 30.4344 72.4096 30.5874C72.4133 30.7649 72.3582 30.9385 72.2531 31.0804C72.1346 31.2299 71.9769 31.3424 71.798 31.4046C71.5661 31.4886 71.3209 31.5289 71.0747 31.5235Z" fill="#E4E4E4"/>
<path d="M73.4286 27.4942C73.3864 27.4952 73.3444 27.4874 73.3053 27.4713C73.2662 27.4552 73.2307 27.4311 73.2011 27.4006C73.1716 27.3714 73.1483 27.3365 73.1325 27.2979C73.1168 27.2593 73.1089 27.2178 73.1094 27.176C73.1091 27.1351 73.117 27.0945 73.1328 27.0568C73.1486 27.0191 73.1718 26.9851 73.2011 26.9569C73.2312 26.9273 73.2669 26.9041 73.3059 26.8886C73.345 26.8731 73.3867 26.8656 73.4286 26.8665C73.5126 26.8647 73.594 26.8961 73.6556 26.9542C73.6856 26.9818 73.7094 27.0157 73.7253 27.0535C73.7412 27.0913 73.7489 27.1322 73.7478 27.1733C73.7489 27.2159 73.7415 27.2583 73.7263 27.2979C73.711 27.3376 73.6881 27.3738 73.6589 27.4044C73.6287 27.4348 73.5927 27.4585 73.553 27.4739C73.5134 27.4894 73.471 27.4963 73.4286 27.4942ZM73.2075 31.4928V28.2173H73.6432V31.4922L73.2075 31.4928Z" fill="#E4E4E4"/>
<path d="M74.3569 28.5852V28.2172H76.3542V28.5852H74.3569ZM75.8813 31.5233C75.5787 31.5233 75.3448 31.4401 75.1796 31.2736C75.0144 31.1071 74.9325 30.8723 74.934 30.5692V27.4941H75.3701V30.544C75.3701 30.7353 75.4184 30.883 75.5148 30.9871C75.6112 31.0912 75.7496 31.143 75.9299 31.1427C76.1047 31.1489 76.2756 31.089 76.4092 30.9745L76.5625 31.2927C76.4732 31.3736 76.3671 31.4331 76.2522 31.4669C76.132 31.5045 76.007 31.5235 75.8813 31.5233Z" fill="#E4E4E4"/>
<path d="M78.6113 31.5234C78.3029 31.5303 77.9979 31.4562 77.7261 31.3082C77.4782 31.1697 77.2728 30.9647 77.1323 30.7155C76.9855 30.4523 76.9109 30.154 76.9164 29.8517C76.9104 29.5517 76.9813 29.2552 77.122 28.9912C77.2546 28.7463 77.4501 28.5425 77.6877 28.4013C77.9333 28.2562 78.2133 28.1819 78.4974 28.1866C78.7809 28.1811 79.0606 28.2532 79.3071 28.3953C79.5425 28.5344 79.7351 28.7373 79.8631 28.9813C80.0024 29.2493 80.0722 29.5488 80.0661 29.8517C80.0661 29.8725 80.065 29.8944 80.0628 29.9174C80.0628 29.9399 80.0628 29.964 80.0628 29.9892H77.2559V29.6605H79.8313L79.6591 29.7915C79.663 29.5708 79.6112 29.3528 79.5085 29.1583C79.4133 28.9791 79.2721 28.8293 79.0998 28.725C78.9196 28.619 78.7143 28.565 78.5061 28.5689C78.2979 28.566 78.0929 28.6199 77.9123 28.725C77.7366 28.8283 77.5938 28.9803 77.5004 29.1632C77.3991 29.3615 77.3483 29.5824 77.3525 29.8057V29.8742C77.3476 30.104 77.4036 30.331 77.5145 30.5315C77.6219 30.7197 77.7796 30.8731 77.9695 30.974C78.175 31.083 78.4043 31.1378 78.6361 31.1334C78.8248 31.135 79.0118 31.0989 79.1867 31.0272C79.3568 30.9565 79.5075 30.8453 79.6261 30.7029L79.8593 30.9866C79.7141 31.1622 79.5288 31.2991 79.3195 31.3854C79.0949 31.4789 78.8541 31.5258 78.6113 31.5234Z" fill="#E4E4E4"/>
<path d="M83.701 31.5294C83.4463 31.5342 83.1933 31.4864 82.9572 31.3892C82.7551 31.3075 82.578 31.1729 82.4439 30.9992C82.3185 30.8329 82.2523 30.6284 82.256 30.4191C82.2542 30.2399 82.2965 30.0631 82.3791 29.9048C82.4803 29.726 82.6151 29.5691 82.7758 29.443C83.0033 29.2613 83.2471 29.1016 83.504 28.9659C83.7126 28.8515 83.9147 28.7255 84.1097 28.5886C84.2306 28.5067 84.3358 28.4031 84.42 28.2829C84.4804 28.1893 84.5125 28.0798 84.5123 27.968C84.5151 27.8944 84.5021 27.8211 84.4741 27.7532C84.4462 27.6853 84.4039 27.6244 84.3504 27.5747C84.2425 27.475 84.0877 27.4251 83.8862 27.4251C83.6703 27.4251 83.5022 27.4799 83.382 27.5895C83.3236 27.6433 83.2774 27.7094 83.2466 27.7832C83.2158 27.857 83.2013 27.9366 83.2039 28.0167C83.2036 28.1016 83.2171 28.186 83.2438 28.2665C83.2799 28.3621 83.332 28.4506 83.3977 28.5283C83.4732 28.6243 83.5787 28.7448 83.714 28.8898L85.9887 31.2665L85.7366 31.5595L83.3615 29.0832C83.2402 28.9559 83.1263 28.8217 83.0204 28.6811C82.9446 28.5821 82.8855 28.4711 82.8455 28.3525C82.8124 28.2462 82.7958 28.1353 82.7963 28.0238C82.7903 27.8517 82.8358 27.6818 82.9269 27.5365C83.018 27.3912 83.1503 27.2773 83.3064 27.2099C83.4885 27.1294 83.6856 27.0902 83.884 27.0949C84.0645 27.0906 84.2438 27.1257 84.4098 27.1978C84.5523 27.2603 84.6739 27.3632 84.7601 27.4942C84.8469 27.6339 84.8907 27.7968 84.8859 27.9619C84.8866 28.117 84.8476 28.2695 84.7725 28.4045C84.6771 28.5632 84.5505 28.7002 84.4006 28.8071C84.1771 28.9697 83.9426 29.1162 83.6989 29.2453C83.4848 29.3619 83.2801 29.4954 83.0868 29.6446C82.9607 29.7415 82.8545 29.8624 82.7742 30.0006C82.7123 30.1164 82.6805 30.2463 82.6819 30.378C82.6793 30.5273 82.7258 30.6732 82.8142 30.7927C82.9099 30.9166 83.0375 31.0113 83.1828 31.0665C83.3564 31.1339 83.5412 31.1666 83.727 31.1629C83.9939 31.1677 84.2579 31.1056 84.4956 30.9822C84.7293 30.8535 84.9253 30.6646 85.064 30.4344C85.2317 30.1496 85.3449 29.8351 85.3976 29.5077L85.7479 29.62C85.6864 29.9933 85.5503 30.3498 85.348 30.6678C85.1717 30.9391 84.9302 31.1602 84.6462 31.3103C84.3532 31.4595 84.0289 31.5347 83.701 31.5294Z" fill="#E4E4E4"/>
<path d="M87.6895 31.4923L89.6565 27.1262H90.1056L92.0726 31.4923H91.5927L89.7855 27.3941H89.9701L88.1629 31.4923H87.6895ZM88.4641 30.3261L88.5996 29.9515H91.101L91.2365 30.3261H88.4641Z" fill="#E4E4E4"/>
<path d="M92.6943 32.7021V28.2172H93.1121V29.2031L93.069 29.8577L93.1305 30.5193V32.7021H92.6943ZM94.3601 31.5234C94.0955 31.5269 93.8347 31.459 93.6044 31.3267C93.3752 31.1933 93.188 30.9965 93.0646 30.7592C92.9311 30.5117 92.8646 30.2091 92.8649 29.8516C92.8653 29.4941 92.9308 29.1916 93.0614 28.944C93.1823 28.7075 93.3681 28.5116 93.5963 28.3799C93.8293 28.2487 94.0922 28.1821 94.3585 28.1865C94.6472 28.1817 94.9321 28.2537 95.185 28.3952C95.4268 28.5322 95.6259 28.7353 95.7598 28.9813C95.8971 29.2507 95.9687 29.5497 95.9687 29.853C95.9687 30.1563 95.8971 30.4553 95.7598 30.7247C95.6248 30.97 95.4259 31.173 95.185 31.3114C94.9333 31.4547 94.6487 31.5278 94.3601 31.5234ZM94.3294 31.1306C94.5447 31.1343 94.757 31.0792 94.9442 30.9712C95.126 30.8645 95.2753 30.7091 95.376 30.5221C95.4862 30.3166 95.542 30.0856 95.538 29.8516C95.5423 29.6187 95.4865 29.3887 95.376 29.1845C95.2736 28.9954 95.122 28.8384 94.9377 28.7306C94.7535 28.6228 94.5436 28.5684 94.331 28.5732C94.1141 28.5703 93.9005 28.6271 93.7129 28.7375C93.531 28.8441 93.3816 28.9995 93.2811 29.1867C93.1734 29.3918 93.1195 29.6215 93.1246 29.8538C93.1198 30.0872 93.1737 30.3179 93.2811 30.5243C93.3805 30.7122 93.5302 30.8679 93.7129 30.9734C93.9011 31.0802 94.1138 31.1344 94.3294 31.1306Z" fill="#E4E4E4"/>
<path d="M96.8623 32.7021V28.2172H97.2801V29.2031L97.2369 29.8577L97.2985 30.5193V32.7021H96.8623ZM98.5281 31.5234C98.2635 31.5269 98.0027 31.459 97.7724 31.3267C97.5431 31.1933 97.3559 30.9965 97.2326 30.7592C97.0995 30.5117 97.0329 30.2091 97.0329 29.8516C97.0329 29.4941 97.0984 29.1916 97.2294 28.944C97.3503 28.7075 97.5361 28.5116 97.7643 28.3799C97.9973 28.2487 98.2601 28.1821 98.5265 28.1865C98.8152 28.1817 99.1001 28.2537 99.3529 28.3952C99.5947 28.5322 99.7939 28.7353 99.9278 28.9813C100.065 29.2507 100.137 29.5497 100.137 29.853C100.137 30.1563 100.065 30.4553 99.9278 30.7247C99.7928 30.97 99.5939 31.173 99.3529 31.3114C99.1009 31.4548 98.816 31.528 98.527 31.5234H98.5281ZM98.4973 31.1306C98.7127 31.1343 98.925 31.0792 99.1122 30.9712C99.2939 30.8645 99.4433 30.7091 99.544 30.5221C99.6542 30.3166 99.71 30.0856 99.706 29.8516C99.7103 29.6187 99.6545 29.3887 99.544 29.1845C99.4416 28.9954 99.29 28.8384 99.1057 28.7306C98.9215 28.6228 98.7116 28.5684 98.499 28.5732C98.2821 28.5702 98.0685 28.627 97.8809 28.7375C97.699 28.8441 97.5496 28.9995 97.4491 29.1867C97.3414 29.3918 97.2875 29.6215 97.2925 29.8538C97.2878 30.0872 97.3417 30.3179 97.4491 30.5243C97.5485 30.7122 97.6982 30.8679 97.8809 30.9734C98.0687 31.0801 98.2811 31.1343 98.4963 31.1306H98.4973Z" fill="#E4E4E4"/>
<path d="M102.731 31.4922V27.1261H104.483C104.902 27.1169 105.316 27.212 105.691 27.4033C106.026 27.578 106.307 27.845 106.5 28.1739C106.69 28.5214 106.789 28.912 106.789 29.3091C106.789 29.7062 106.69 30.0968 106.5 30.4443C106.307 30.7732 106.027 31.0401 105.691 31.2145C105.344 31.3996 104.941 31.4922 104.483 31.4922H102.731ZM103.186 31.0929H104.458C104.803 31.1016 105.144 31.0235 105.451 30.8655C105.723 30.7218 105.95 30.5034 106.106 30.2351C106.259 29.9506 106.339 29.6316 106.339 29.3075C106.339 28.9834 106.259 28.6644 106.106 28.3799C105.949 28.1139 105.722 27.8974 105.451 27.7549C105.144 27.5968 104.803 27.5185 104.458 27.5271H103.186V31.0929Z" fill="#E4E4E4"/>
<path d="M109.088 31.5234C108.779 31.5303 108.474 31.4561 108.203 31.3082C107.955 31.1697 107.749 30.9647 107.609 30.7155C107.462 30.4523 107.388 30.154 107.393 29.8517C107.387 29.5517 107.458 29.2552 107.599 28.9912C107.731 28.7463 107.927 28.5425 108.164 28.4013C108.41 28.2562 108.69 28.1819 108.974 28.1866C109.257 28.1811 109.537 28.2532 109.784 28.3953C110.019 28.5344 110.212 28.7373 110.34 28.9813C110.479 29.2493 110.549 29.5488 110.543 29.8517C110.543 29.8725 110.542 29.8944 110.539 29.9174C110.539 29.9399 110.537 29.964 110.537 29.9892H107.73V29.6605H110.305L110.133 29.7915C110.137 29.5708 110.085 29.3528 109.982 29.1583C109.887 28.9791 109.746 28.8293 109.574 28.725C109.393 28.6185 109.186 28.5645 108.977 28.5689C108.769 28.566 108.564 28.6199 108.383 28.725C108.208 28.8283 108.065 28.9803 107.972 29.1632C107.871 29.3616 107.82 29.5824 107.824 29.8057V29.8742C107.819 30.104 107.875 30.331 107.986 30.5315C108.093 30.7197 108.251 30.8731 108.441 30.974C108.646 31.0831 108.876 31.1379 109.108 31.1334C109.296 31.1349 109.483 31.0988 109.658 31.0272C109.828 30.9565 109.979 30.8453 110.097 30.7029L110.343 30.9899C110.198 31.1657 110.013 31.3027 109.803 31.3887C109.576 31.482 109.333 31.5278 109.088 31.5234Z" fill="#E4E4E4"/>
<path d="M112.199 31.4922L110.767 28.2173H111.222L112.537 31.2551H112.321L113.655 28.2173H114.087L112.648 31.4922H112.199Z" fill="#E4E4E4"/>
<path d="M115.979 31.5234C115.671 31.5303 115.366 31.4561 115.094 31.3082C114.846 31.1697 114.641 30.9647 114.5 30.7155C114.354 30.4523 114.279 30.154 114.285 29.8517C114.279 29.5516 114.35 29.255 114.491 28.9912C114.623 28.7465 114.817 28.5426 115.054 28.4013C115.3 28.2562 115.58 28.1819 115.864 28.1866C116.147 28.1811 116.427 28.2532 116.674 28.3953C116.909 28.5344 117.102 28.7373 117.23 28.9813C117.369 29.2493 117.439 29.5488 117.433 29.8517C117.433 29.8725 117.432 29.8944 117.429 29.9174C117.429 29.9399 117.429 29.964 117.429 29.9892H114.62V29.6605H117.196L117.023 29.7915C117.027 29.5708 116.976 29.3528 116.873 29.1583C116.778 28.9791 116.636 28.8293 116.464 28.725C116.283 28.6186 116.077 28.5646 115.868 28.5689C115.66 28.5662 115.455 28.6201 115.274 28.725C115.099 28.8286 114.956 28.9805 114.862 29.1632C114.761 29.3616 114.711 29.5824 114.715 29.8057V29.8742C114.71 30.104 114.766 30.331 114.877 30.5315C114.984 30.7197 115.142 30.8731 115.332 30.974C115.537 31.083 115.767 31.1378 115.998 31.1334C116.187 31.135 116.374 31.0989 116.548 31.0272C116.719 30.9565 116.87 30.8453 116.988 30.7029L117.234 30.9899C117.089 31.1655 116.903 31.3024 116.694 31.3887C116.467 31.482 116.224 31.5278 115.979 31.5234Z" fill="#E4E4E4"/>
<path d="M118.32 31.4922V26.8638H118.757V31.4922H118.32Z" fill="#E4E4E4"/>
<path d="M121.289 31.5235C120.995 31.5289 120.704 31.4546 120.447 31.3083C120.204 31.1666 120.002 30.9609 119.863 30.7129C119.722 30.4473 119.648 30.1504 119.648 29.8488C119.648 29.5472 119.722 29.2503 119.863 28.9847C120.003 28.7397 120.204 28.5373 120.447 28.3986C120.708 28.2585 120.999 28.1853 121.294 28.1853C121.59 28.1853 121.88 28.2585 122.141 28.3986C122.384 28.5372 122.586 28.7399 122.725 28.9853C122.87 29.2488 122.944 29.5471 122.937 29.8491C122.942 30.1509 122.869 30.449 122.725 30.7129C122.587 30.9615 122.384 31.1666 122.138 31.3055C121.879 31.4524 121.586 31.5276 121.289 31.5235ZM121.289 31.1308C121.507 31.135 121.721 31.0799 121.911 30.9714C122.091 30.8649 122.239 30.7093 122.338 30.5222C122.441 30.3136 122.494 30.0835 122.494 29.8502C122.494 29.6168 122.441 29.3867 122.338 29.1781C122.238 28.9925 122.091 28.8383 121.911 28.7322C121.722 28.628 121.511 28.5734 121.296 28.5734C121.081 28.5734 120.87 28.628 120.681 28.7322C120.5 28.8383 120.351 28.9924 120.249 29.1781C120.144 29.3861 120.089 29.6164 120.089 29.8502C120.089 30.0839 120.144 30.3142 120.249 30.5222C120.349 30.7085 120.496 30.8638 120.676 30.9714C120.863 31.0798 121.075 31.1349 121.289 31.1308Z" fill="#E4E4E4"/>
<path d="M123.828 32.7021V28.2172H124.246V29.2031L124.203 29.8577L124.265 30.5193V32.7021H123.828ZM125.494 31.5233C125.23 31.5269 124.969 31.459 124.739 31.3267C124.51 31.193 124.323 30.9963 124.199 30.7592C124.066 30.5117 124 30.2091 123.999 29.8516C123.999 29.4941 124.065 29.1916 124.196 28.944C124.317 28.7077 124.503 28.5118 124.731 28.3798C124.964 28.2488 125.227 28.1821 125.493 28.1865C125.782 28.1818 126.067 28.2538 126.32 28.3952C126.562 28.5322 126.761 28.7352 126.895 28.9813C127.032 29.2507 127.104 29.5497 127.104 29.853C127.104 30.1563 127.032 30.4553 126.895 30.7247C126.76 30.97 126.561 31.1729 126.32 31.3114C126.068 31.4547 125.783 31.5278 125.494 31.5233ZM125.464 31.1306C125.679 31.1343 125.891 31.0793 126.078 30.9712C126.26 30.8644 126.409 30.7091 126.51 30.5221C126.62 30.3166 126.676 30.0856 126.672 29.8516C126.676 29.6187 126.62 29.3887 126.51 29.1845C126.407 28.9955 126.256 28.8386 126.071 28.7308C125.887 28.6231 125.677 28.5685 125.465 28.5732C125.248 28.5702 125.034 28.627 124.847 28.7375C124.665 28.8441 124.515 28.9995 124.415 29.1867C124.307 29.3917 124.253 29.6215 124.258 29.8538C124.253 30.0872 124.307 30.318 124.415 30.5243C124.514 30.7122 124.664 30.8679 124.847 30.9734C125.035 31.0803 125.248 31.1346 125.464 31.1306Z" fill="#E4E4E4"/>
<path d="M132.029 28.1867C132.267 28.181 132.502 28.2334 132.715 28.3395C132.911 28.4423 133.07 28.6048 133.17 28.804C133.278 29.0121 133.331 29.2741 133.331 29.59V31.4923H132.895V29.6333C132.895 29.2882 132.814 29.0273 132.652 28.8505C132.491 28.6738 132.262 28.5854 131.967 28.5854C131.766 28.5803 131.568 28.6288 131.392 28.7262C131.23 28.82 131.099 28.9612 131.017 29.1315C130.924 29.3311 130.879 29.5501 130.885 29.7707V31.4923H130.448V29.6333C130.448 29.2882 130.367 29.0273 130.203 28.8505C130.039 28.6738 129.81 28.5854 129.514 28.5854C129.315 28.5811 129.118 28.6296 128.942 28.7262C128.779 28.8189 128.647 28.9604 128.565 29.1315C128.471 29.331 128.426 29.5501 128.432 29.7707V31.4923H127.996V28.2173H128.414V29.1036L128.346 28.9475C128.441 28.7141 128.609 28.5183 128.823 28.3893C129.058 28.2497 129.328 28.1795 129.6 28.1867C129.887 28.1778 130.169 28.2619 130.405 28.4266C130.627 28.5865 130.771 28.8266 130.837 29.1469L130.665 29.0784C130.759 28.8135 130.934 28.5867 131.166 28.4326C131.423 28.2639 131.724 28.1782 132.029 28.1867Z" fill="#E4E4E4"/>
<path d="M135.891 31.5234C135.582 31.5302 135.277 31.456 135.005 31.3081C134.757 31.1698 134.552 30.9647 134.412 30.7155C134.265 30.4523 134.19 30.154 134.196 29.8517C134.19 29.5516 134.261 29.255 134.402 28.9912C134.534 28.7463 134.73 28.5425 134.967 28.4013C135.214 28.2615 135.492 28.1876 135.775 28.1865C136.057 28.1855 136.336 28.2573 136.584 28.3952C136.819 28.5343 137.012 28.7373 137.14 28.9813C137.279 29.2494 137.349 29.5488 137.343 29.8517C137.343 29.8725 137.342 29.8944 137.34 29.9174C137.34 29.9399 137.337 29.964 137.337 29.9892H134.53V29.6605H137.106L136.934 29.7914C136.937 29.5708 136.886 29.3528 136.783 29.1583C136.688 28.979 136.546 28.8293 136.374 28.725C136.194 28.6189 135.988 28.5649 135.78 28.5689C135.571 28.5657 135.365 28.6196 135.183 28.725C135.008 28.8284 134.865 28.9804 134.772 29.1632C134.671 29.3616 134.62 29.5824 134.624 29.8057V29.8742C134.619 30.104 134.675 30.331 134.786 30.5314C134.894 30.7195 135.051 30.8729 135.241 30.974C135.446 31.0829 135.676 31.1377 135.908 31.1334C136.096 31.1349 136.283 31.0988 136.458 31.0272C136.628 30.9567 136.779 30.8454 136.897 30.7029L137.143 30.9899C136.998 31.1656 136.813 31.3025 136.604 31.3887C136.377 31.4817 136.135 31.5276 135.891 31.5234Z" fill="#E4E4E4"/>
<path d="M139.878 28.1866C140.118 28.1813 140.355 28.2337 140.57 28.3394C140.769 28.4416 140.932 28.6038 141.037 28.8039C141.15 29.0121 141.206 29.2741 141.206 29.5899V31.4922H140.77V29.6332C140.77 29.2881 140.684 29.0272 140.514 28.8505C140.344 28.6737 140.105 28.5854 139.799 28.5854C139.59 28.5804 139.384 28.6288 139.199 28.7261C139.031 28.8176 138.893 28.959 138.806 29.1315C138.709 29.3298 138.661 29.5493 138.668 29.7707V31.4922H138.231V28.2173H138.649V29.1156L138.581 28.9474C138.682 28.7125 138.854 28.5167 139.073 28.3893C139.318 28.2489 139.597 28.1789 139.878 28.1866Z" fill="#E4E4E4"/>
<path d="M141.881 28.5852V28.2172H143.879V28.5852H141.881ZM143.406 31.5233C143.103 31.5233 142.869 31.4401 142.704 31.2736C142.539 31.1071 142.457 30.8723 142.458 30.5692V27.4941H142.895V30.544C142.895 30.7353 142.943 30.883 143.039 30.9871C143.136 31.0912 143.274 31.143 143.454 31.1427C143.629 31.1489 143.8 31.089 143.934 30.9745L144.087 31.2927C143.998 31.3736 143.892 31.4331 143.777 31.4669C143.657 31.5044 143.532 31.5234 143.406 31.5233H143.406Z" fill="#E4E4E4"/>
<path d="M67.1746 11.0254C67.1765 12.7402 66.5851 14.3963 65.512 15.6807C64.439 16.9651 62.9587 17.7888 61.351 17.9961L61.3194 18H55.1621V9.05575H57.9706V15.0291H61.131C61.8982 14.901 62.6105 14.5293 63.1738 13.9632C63.737 13.3971 64.1246 12.6632 64.2853 11.8587C64.339 11.5835 64.3661 11.3032 64.3661 11.0222C64.3671 10.396 64.2303 9.77822 63.9666 9.21775C63.7028 8.65728 63.3194 8.16957 62.8467 7.79326C62.3921 7.42687 61.8653 7.17391 61.3054 7.05327C61.1128 7.01238 60.9176 6.987 60.7213 6.97734H55.1627V4L61.0477 4.02316C62.7149 4.15691 64.2728 4.95282 65.4092 6.25138C66.5455 7.54993 67.1763 9.2552 67.1752 11.0254H67.1746Z" fill="#E4E4E4"/>
<path d="M82.1919 4V6.97362H69.1777V4H82.1919ZM72.272 15.0264H82.1919V18H69.1777V9.02703L72.2713 9.04569H80.8932V12.0193H72.272V15.0264Z" fill="#E4E4E4"/>
<path d="M95.2054 4.07603V18H94.5145L92.4769 15.9158L89.0557 12.4171L87.0799 10.3956L84.1934 7.44377V4H84.9092L92.3182 11.5782V4.07603H95.2054ZM84.1934 10.3547L87.0799 13.3065V17.9815H84.1934V10.3547Z" fill="#E4E4E4"/>
<path d="M100.212 4V18H97.2085V4H100.212Z" fill="#E4E4E4"/>
<path d="M114.226 4V6.97362H102.213V4H114.226ZM105.07 15.0264H114.226V18H102.213V9.02703L105.069 9.04569H113.028V12.0193H105.07V15.0264Z" fill="#E4E4E4"/>
<path d="M127.241 15.0476V18H116.229V4H119.168V15.0476H127.241Z" fill="#E4E4E4"/>
<path d="M149.668 11.6536C150.015 12.299 150.197 13.0296 150.194 13.7725C150.191 14.5153 150.004 15.2444 149.652 15.8868C149.299 16.5292 148.794 17.0625 148.186 17.4333C147.578 17.8041 146.888 17.9995 146.186 18H142.211C141.708 18.0007 141.21 17.8963 140.745 17.693C140.28 17.4896 139.858 17.1912 139.503 16.8148C139.147 16.4384 138.865 15.9915 138.673 15.4996C138.481 15.0077 138.382 14.4805 138.383 13.9483H141.132C141.132 14.1862 141.203 14.4183 141.333 14.6119C141.464 14.8055 141.649 14.951 141.861 15.0281H146.186C146.346 15.0319 146.505 15.0019 146.654 14.9397C146.803 14.8776 146.938 14.7846 147.053 14.6662C147.167 14.5479 147.258 14.4065 147.32 14.2505C147.382 14.0945 147.414 13.9269 147.414 13.7576C147.414 13.5883 147.382 13.4207 147.32 13.2647C147.258 13.1086 147.167 12.9673 147.053 12.8489C146.938 12.7306 146.803 12.6376 146.654 12.5755C146.505 12.5133 146.346 12.4833 146.186 12.4871H142.393C141.856 12.5056 141.32 12.4096 140.819 12.2047C140.317 11.9999 139.86 11.6903 139.473 11.2946C139.087 10.8988 138.78 10.4248 138.57 9.9009C138.361 9.37696 138.252 8.81372 138.252 8.24467C138.252 7.67561 138.361 7.11237 138.57 6.58843C138.78 6.06448 139.087 5.59053 139.473 5.19476C139.86 4.79898 140.317 4.48946 140.819 4.2846C141.32 4.07974 141.856 3.98372 142.393 4.00225H146.438C147.453 4.00225 148.427 4.42913 149.144 5.18897C149.862 5.94882 150.266 6.97939 150.266 8.05398H147.516C147.516 7.81607 147.446 7.58419 147.315 7.39064C147.184 7.19709 147 7.0515 146.787 6.97416H142.393C142.079 6.98163 141.781 7.11877 141.561 7.35622C141.342 7.59367 141.219 7.91257 141.219 8.24467C141.219 8.57676 141.342 8.89566 141.561 9.13311C141.781 9.37056 142.079 9.5077 142.393 9.51517H146.188C146.895 9.51683 147.588 9.71534 148.199 10.0907C148.81 10.4661 149.316 11.0051 149.668 11.6536Z" fill="#E4E4E4"/>
<path d="M165.282 11C165.282 12.3845 164.871 13.7379 164.101 14.8891C163.331 16.0402 162.237 16.9374 160.956 17.4672C159.676 17.997 158.267 18.1356 156.907 17.8654C155.548 17.5953 154.299 16.9285 153.319 15.9495C152.339 14.9705 151.672 13.7231 151.402 12.3652C151.131 11.0073 151.27 9.59984 151.801 8.32077C152.331 7.0417 153.229 5.94849 154.382 5.1794C155.534 4.41031 156.889 3.99987 158.275 4C160.133 4.00222 161.914 4.74045 163.228 6.05275C164.541 7.36504 165.28 9.14422 165.282 11ZM158.275 6.92178C157.468 6.92165 156.678 7.16073 156.007 7.60877C155.336 8.05681 154.812 8.6937 154.503 9.43888C154.194 10.1841 154.113 11.0041 154.27 11.7952C154.428 12.5864 154.817 13.3131 155.388 13.8835C155.959 14.4539 156.686 14.8424 157.478 14.9998C158.27 15.1572 159.091 15.0765 159.837 14.7678C160.583 14.4592 161.221 13.9365 161.669 13.2658C162.118 12.5951 162.357 11.8066 162.357 11C162.356 9.91931 161.925 8.88346 161.16 8.11948C160.394 7.3555 159.357 6.92573 158.275 6.92436V6.92178Z" fill="#E4E4E4"/>
<path d="M178.297 4.07603V18H177.61L175.568 15.9158L172.147 12.4171L170.171 10.3956L167.285 7.44377V4H168.001L175.41 11.5782V4.07603H178.297ZM167.285 10.3547L170.171 13.3078V17.9827H167.285V10.3547Z" fill="#E4E4E4"/>
<path d="M183.302 4V18H180.299V4H183.302Z" fill="#E4E4E4"/>
<path d="M196.722 11.6536C197.069 12.2988 197.251 13.0292 197.248 13.7718C197.245 14.5145 197.058 15.2433 196.706 15.8857C196.354 16.528 195.849 17.0613 195.241 17.4323C194.633 17.8033 193.944 17.9991 193.243 18H189.267C188.764 18.0007 188.266 17.8963 187.801 17.693C187.336 17.4896 186.914 17.1912 186.559 16.8148C186.203 16.4384 185.921 15.9915 185.729 15.4996C185.537 15.0077 185.438 14.4805 185.439 13.9483H188.188C188.188 14.1862 188.259 14.4183 188.389 14.6119C188.52 14.8055 188.705 14.951 188.917 15.0281H193.243C193.403 15.0319 193.562 15.0019 193.71 14.9397C193.859 14.8776 193.995 14.7846 194.109 14.6662C194.223 14.5479 194.314 14.4065 194.376 14.2505C194.438 14.0945 194.47 13.9269 194.47 13.7576C194.47 13.5883 194.438 13.4207 194.376 13.2647C194.314 13.1086 194.223 12.9673 194.109 12.8489C193.995 12.7306 193.859 12.6376 193.71 12.5755C193.562 12.5133 193.403 12.4833 193.243 12.4871H189.445C188.908 12.5056 188.373 12.4096 187.871 12.2047C187.37 11.9999 186.912 11.6903 186.526 11.2946C186.139 10.8988 185.832 10.4248 185.623 9.9009C185.413 9.37696 185.305 8.81372 185.305 8.24467C185.305 7.67561 185.413 7.11237 185.623 6.58843C185.832 6.06448 186.139 5.59053 186.526 5.19476C186.912 4.79898 187.37 4.48946 187.871 4.2846C188.373 4.07974 188.908 3.98372 189.445 4.00225H193.49C193.993 4.00157 194.491 4.10591 194.956 4.30929C195.42 4.51267 195.843 4.81109 196.198 5.18746C196.554 5.56384 196.836 6.01076 197.028 6.50265C197.22 6.99453 197.318 7.52171 197.318 8.05398H194.569C194.569 7.81607 194.498 7.58419 194.368 7.39064C194.237 7.19709 194.053 7.0515 193.84 6.97416H189.445C189.132 6.98163 188.833 7.11877 188.614 7.35622C188.395 7.59367 188.272 7.91257 188.272 8.24467C188.272 8.57676 188.395 8.89566 188.614 9.13311C188.833 9.37056 189.132 9.5077 189.445 9.51517H193.243C193.949 9.51675 194.642 9.71523 195.253 10.0906C195.864 10.466 196.37 11.0051 196.722 11.6536Z" fill="#E4E4E4"/>
</svg>
