<svg width="52" height="51" viewBox="0 0 52 51" fill="none" xmlns="http://www.w3.org/2000/svg">
<g clip-path="url(#clip0_1_3688)">
<path d="M27.842 45.3246C41.1987 43.8966 46.9132 34.2247 45.7292 23.174C44.5452 12.1232 36.9111 3.87838 23.5544 5.3063C10.1978 6.73422 4.48325 16.4061 5.66723 27.4569C6.85121 38.5076 14.4854 46.7525 27.842 45.3246Z" fill="url(#paint0_radial_1_3688)"/>
<path d="M27.842 45.3246C41.1987 43.8966 46.9132 34.2247 45.7292 23.174C44.5452 12.1232 36.9111 3.87838 23.5544 5.3063C10.1978 6.73422 4.48325 16.4061 5.66723 27.4569C6.85121 38.5076 14.4854 46.7525 27.842 45.3246Z" fill="url(#paint1_radial_1_3688)"/>
<path d="M27.842 45.3246C41.1987 43.8966 46.9132 34.2247 45.7292 23.174C44.5452 12.1232 36.9111 3.87838 23.5544 5.3063C10.1978 6.73422 4.48325 16.4061 5.66723 27.4569C6.85121 38.5076 14.4854 46.7525 27.842 45.3246Z" fill="url(#paint2_radial_1_3688)"/>
<path d="M27.842 45.3246C41.1987 43.8966 46.9132 34.2247 45.7292 23.174C44.5452 12.1232 36.9111 3.87838 23.5544 5.3063C10.1978 6.73422 4.48325 16.4061 5.66723 27.4569C6.85121 38.5076 14.4854 46.7525 27.842 45.3246Z" fill="url(#paint3_radial_1_3688)" fill-opacity="0.6"/>
<path d="M27.842 45.3246C41.1987 43.8966 46.9132 34.2247 45.7292 23.174C44.5452 12.1232 36.9111 3.87838 23.5544 5.3063C10.1978 6.73422 4.48325 16.4061 5.66723 27.4569C6.85121 38.5076 14.4854 46.7525 27.842 45.3246Z" fill="url(#paint4_radial_1_3688)"/>
<path d="M27.842 45.3246C41.1987 43.8966 46.9132 34.2247 45.7292 23.174C44.5452 12.1232 36.9111 3.87838 23.5544 5.3063C10.1978 6.73422 4.48325 16.4061 5.66723 27.4569C6.85121 38.5076 14.4854 46.7525 27.842 45.3246Z" fill="url(#paint5_radial_1_3688)"/>
<path d="M27.842 45.3246C41.1987 43.8966 46.9132 34.2247 45.7292 23.174C44.5452 12.1232 36.9111 3.87838 23.5544 5.3063C10.1978 6.73422 4.48325 16.4061 5.66723 27.4569C6.85121 38.5076 14.4854 46.7525 27.842 45.3246Z" fill="url(#paint6_radial_1_3688)"/>
<path d="M27.842 45.3246C41.1987 43.8966 46.9132 34.2247 45.7292 23.174C44.5452 12.1232 36.9111 3.87838 23.5544 5.3063C10.1978 6.73422 4.48325 16.4061 5.66723 27.4569C6.85121 38.5076 14.4854 46.7525 27.842 45.3246Z" fill="url(#paint7_radial_1_3688)"/>
<path d="M36.3285 29.9634C36.9211 35.495 32.9218 40.4476 27.3842 41.0396C21.8466 41.6316 16.8886 37.6366 16.2959 32.105L26.3122 31.0342L36.3285 29.9634Z" fill="url(#paint8_radial_1_3688)"/>
<path d="M22.0195 31.4931L30.6049 30.5753L30.7281 31.725C30.7869 32.2741 30.3895 32.7669 29.8403 32.8256L23.2436 33.5308C22.6944 33.5895 22.2015 33.1919 22.1427 32.6428L22.0195 31.4931Z" fill="url(#paint9_linear_1_3688)"/>
<path d="M16.706 29.1699C20.2622 28.7897 22.8365 25.6018 22.4559 22.0495C22.0753 18.4972 18.8839 15.9256 15.3277 16.3058C11.7715 16.686 9.19721 19.8739 9.5778 23.4262C9.9584 26.9785 13.1498 29.55 16.706 29.1699Z" fill="white"/>
<path d="M35.3075 27.1812C38.8637 26.801 41.4381 23.6131 41.0575 20.0608C40.6769 16.5085 37.4855 13.937 33.9293 14.3172C30.3731 14.6974 27.7988 17.8853 28.1794 21.4376C28.56 24.9899 31.7514 27.5614 35.3075 27.1812Z" fill="white"/>
<path fill-rule="evenodd" clip-rule="evenodd" d="M17.0646 19.0115C15.0884 19.2228 13.6587 20.9933 13.8702 22.9673C14.0816 24.9412 15.8541 26.3694 17.8303 26.1582C19.8064 25.9469 21.2361 24.1764 21.0247 22.2024C20.8132 20.2284 19.0407 18.8002 17.0646 19.0115ZM32.8044 17.3288C30.8283 17.54 29.3986 19.3106 29.6101 21.2846C29.8215 23.2585 31.594 24.6867 33.5701 24.4755C35.5463 24.2642 36.976 22.4937 36.7645 20.5197C36.5531 18.5457 34.7806 17.1175 32.8044 17.3288Z" fill="#402A32"/>
<path fill-rule="evenodd" clip-rule="evenodd" d="M3.77716 23.3234C3.69259 22.534 4.26398 21.8257 5.0534 21.7413L8.63217 21.3587L8.93845 24.2174L5.35968 24.6C4.57026 24.6844 3.86174 24.1128 3.77716 23.3234ZM45.302 20.3299L41.8491 20.699L41.5429 17.8403L44.9957 17.4712C45.8511 17.3797 46.6199 17.9481 46.7042 18.7343C46.7884 19.5204 46.1574 20.2384 45.302 20.3299ZM22.2257 19.9055L27.9493 19.2936L28.2556 22.1522L22.532 22.7641L22.2257 19.9055Z" fill="url(#paint10_linear_1_3688)"/>
<path fill-rule="evenodd" clip-rule="evenodd" d="M15.3268 16.3058C11.7706 16.686 9.19629 19.8739 9.57688 23.4262C9.95748 26.9785 13.1489 29.55 16.7051 29.1699C20.2612 28.7897 22.8356 25.6018 22.455 22.0495C22.0744 18.4972 18.883 15.9256 15.3268 16.3058ZM8.14598 23.5792C7.68081 19.2375 10.8272 15.3411 15.1737 14.8765C19.5201 14.4118 23.4207 17.5548 23.8859 21.8965C24.3511 26.2382 21.2047 30.1345 16.8582 30.5992C12.5117 31.0639 8.61116 27.9209 8.14598 23.5792Z" fill="url(#paint11_radial_1_3688)"/>
<path fill-rule="evenodd" clip-rule="evenodd" d="M33.9305 14.3276C30.3801 14.7072 27.8099 17.8899 28.1899 21.4364C28.5699 24.983 31.7561 27.5503 35.3065 27.1707C38.8569 26.7912 41.427 23.6085 41.047 20.0619C40.6671 16.5154 37.4809 13.9481 33.9305 14.3276ZM26.7485 21.5905C26.2833 17.2488 29.4297 13.3525 33.7762 12.8878C38.1227 12.4232 42.0232 15.5661 42.4884 19.9078C42.9536 24.2495 39.8072 28.1459 35.4607 28.6105C31.1143 29.0752 27.2137 25.9322 26.7485 21.5905Z" fill="url(#paint12_radial_1_3688)"/>
<path fill-rule="evenodd" clip-rule="evenodd" d="M15.3268 16.3058C11.7706 16.686 9.19629 19.8739 9.57688 23.4262C9.95748 26.9785 13.1489 29.55 16.7051 29.1699C20.2612 28.7897 22.8356 25.6018 22.455 22.0495C22.0744 18.4972 18.883 15.9256 15.3268 16.3058ZM8.14598 23.5792C7.68081 19.2375 10.8272 15.3411 15.1737 14.8765C19.5201 14.4118 23.4207 17.5548 23.8859 21.8965C24.3511 26.2382 21.2047 30.1345 16.8582 30.5992C12.5117 31.0639 8.61116 27.9209 8.14598 23.5792Z" fill="url(#paint13_radial_1_3688)"/>
<path fill-rule="evenodd" clip-rule="evenodd" d="M33.9293 14.3172C30.3731 14.6974 27.7988 17.8853 28.1794 21.4376C28.56 24.9899 31.7514 27.5614 35.3076 27.1812C38.8638 26.801 41.4381 23.6131 41.0575 20.0608C40.6769 16.5085 37.4855 13.937 33.9293 14.3172ZM26.7485 21.5905C26.2833 17.2488 29.4297 13.3525 33.7762 12.8878C38.1226 12.4232 42.0232 15.5661 42.4884 19.9078C42.9536 24.2495 39.8072 28.1459 35.4607 28.6105C31.1143 29.0752 27.2137 25.9322 26.7485 21.5905Z" fill="url(#paint14_radial_1_3688)"/>
</g>
<defs>
<radialGradient id="paint0_radial_1_3688" cx="0" cy="0" r="1" gradientUnits="userSpaceOnUse" gradientTransform="translate(38.2216 13.8583) rotate(126.76) scale(53.9321 53.9489)">
<stop stop-color="#FFF478"/>
<stop offset="0.474827" stop-color="#FFB02E"/>
<stop offset="1" stop-color="#F70A8D"/>
</radialGradient>
<radialGradient id="paint1_radial_1_3688" cx="0" cy="0" r="1" gradientUnits="userSpaceOnUse" gradientTransform="translate(38.2216 13.8583) rotate(125.799) scale(56.0097 56.029)">
<stop stop-color="#FFF478"/>
<stop offset="0.474827" stop-color="#FFB02E"/>
<stop offset="1" stop-color="#F70A8D"/>
</radialGradient>
<radialGradient id="paint2_radial_1_3688" cx="0" cy="0" r="1" gradientUnits="userSpaceOnUse" gradientTransform="translate(25.164 20.3142) rotate(95.2068) scale(25.6547 32.8941)">
<stop offset="0.787821" stop-color="#F59639" stop-opacity="0"/>
<stop offset="0.972509" stop-color="#FF7DCE"/>
</radialGradient>
<radialGradient id="paint3_radial_1_3688" cx="0" cy="0" r="1" gradientUnits="userSpaceOnUse" gradientTransform="translate(28.2555 22.1522) rotate(128.922) scale(58.9804 58.994)">
<stop offset="0.314853" stop-opacity="0"/>
<stop offset="1"/>
</radialGradient>
<radialGradient id="paint4_radial_1_3688" cx="0" cy="0" r="1" gradientUnits="userSpaceOnUse" gradientTransform="translate(25.8531 26.7462) rotate(71.5645) scale(40.4656 40.501)">
<stop offset="0.507903" stop-color="#7D6133" stop-opacity="0"/>
<stop offset="1" stop-color="#715B32"/>
</radialGradient>
<radialGradient id="paint5_radial_1_3688" cx="0" cy="0" r="1" gradientUnits="userSpaceOnUse" gradientTransform="translate(26.492 25.955) rotate(49.5735) scale(19.147 13.8811)">
<stop stop-color="#FFB849"/>
<stop offset="1" stop-color="#FFB847" stop-opacity="0"/>
</radialGradient>
<radialGradient id="paint6_radial_1_3688" cx="0" cy="0" r="1" gradientUnits="userSpaceOnUse" gradientTransform="translate(32.4453 27.4872) rotate(3.75296) scale(16.7976 16.7795)">
<stop stop-color="#FFA64B"/>
<stop offset="0.900412" stop-color="#FFAE46" stop-opacity="0"/>
</radialGradient>
<radialGradient id="paint7_radial_1_3688" cx="0" cy="0" r="1" gradientUnits="userSpaceOnUse" gradientTransform="translate(27.6932 23.6581) rotate(37.8318) scale(84.9465 84.9235)">
<stop offset="0.185425" stop-opacity="0"/>
<stop offset="1" stop-opacity="0.4"/>
</radialGradient>
<radialGradient id="paint8_radial_1_3688" cx="0" cy="0" r="1" gradientUnits="userSpaceOnUse" gradientTransform="translate(27.6224 43.263) rotate(-96.1154) scale(13.7363 27.5019)">
<stop stop-color="#F70A8D"/>
<stop offset="1" stop-color="#89029C"/>
</radialGradient>
<linearGradient id="paint9_linear_1_3688" x1="26.3122" y1="31.0342" x2="26.5414" y2="33.1782" gradientUnits="userSpaceOnUse">
<stop stop-color="#CEA4F3"/>
<stop offset="0.279919" stop-color="#ECCDFF"/>
<stop offset="1" stop-color="white"/>
</linearGradient>
<linearGradient id="paint10_linear_1_3688" x1="25.0875" y1="19.5995" x2="25.3931" y2="22.4583" gradientUnits="userSpaceOnUse">
<stop stop-color="#5F5253"/>
<stop offset="1" stop-color="#4D2C4F"/>
</linearGradient>
<radialGradient id="paint11_radial_1_3688" cx="0" cy="0" r="1" gradientUnits="userSpaceOnUse" gradientTransform="translate(20.6412 18.6291) rotate(125.107) scale(15.2864 15.292)">
<stop stop-color="#54424A"/>
<stop offset="1" stop-color="#52394D"/>
</radialGradient>
<radialGradient id="paint12_radial_1_3688" cx="0" cy="0" r="1" gradientUnits="userSpaceOnUse" gradientTransform="translate(39.2438 16.6404) rotate(125.107) scale(15.2864 15.292)">
<stop stop-color="#54424A"/>
<stop offset="1" stop-color="#52394D"/>
</radialGradient>
<radialGradient id="paint13_radial_1_3688" cx="0" cy="0" r="1" gradientUnits="userSpaceOnUse" gradientTransform="translate(16.7314 22.6614) rotate(164.445) scale(8.75284 8.74466)">
<stop offset="0.899365" stop-color="#3B2131" stop-opacity="0"/>
<stop offset="1" stop-color="#422833"/>
</radialGradient>
<radialGradient id="paint14_radial_1_3688" cx="0" cy="0" r="1" gradientUnits="userSpaceOnUse" gradientTransform="translate(35.3339 20.6727) rotate(164.445) scale(8.75284 8.74466)">
<stop offset="0.899365" stop-color="#3B2131" stop-opacity="0"/>
<stop offset="1" stop-color="#422833"/>
</radialGradient>
<clipPath id="clip0_1_3688">
<rect width="46.0497" height="46.0006" fill="white" transform="matrix(0.994334 -0.106301 0.106531 0.994309 0.355469 4.89502)"/>
</clipPath>
</defs>
</svg>
