<svg width="16" height="14" viewBox="0 0 16 14" fill="none" xmlns="http://www.w3.org/2000/svg">
<path d="M7.79167 3.1875C8.35525 3.1875 8.89575 3.41138 9.29427 3.8099C9.69278 4.20841 9.91667 4.74891 9.91667 5.3125C9.91667 5.87609 9.69278 6.41659 9.29427 6.8151C8.89575 7.21362 8.35525 7.4375 7.79167 7.4375C7.22808 7.4375 6.68758 7.21362 6.28906 6.8151C5.89055 6.41659 5.66667 5.87609 5.66667 5.3125C5.66667 4.74891 5.89055 4.20841 6.28906 3.8099C6.68758 3.41138 7.22808 3.1875 7.79167 3.1875ZM7.79167 0C11.2342 0 14.3225 2.125 15.5833 5.3125C13.8904 9.61917 9.03125 11.73 4.72458 10.0371C2.56417 9.18708 0.85 7.48 0 5.3125C1.26083 2.125 4.34917 0 7.79167 0ZM1.54417 5.3125C3.23 8.76208 7.40208 10.1929 10.8517 8.5C12.2388 7.82119 13.3604 6.69966 14.0392 5.3125C12.3533 1.86292 8.18125 0.432083 4.73167 2.125C3.34451 2.80381 2.22298 3.92534 1.54417 5.3125ZM5.66667 12.3958H4.25V13.8125H5.66667V12.3958ZM8.5 12.3958H7.08333V13.8125H8.5V12.3958ZM11.3333 12.3958H9.91667V13.8125H11.3333V12.3958Z" fill="#212121"/>
</svg>
